<svg width="122" height="60" viewBox="0 0 122 60" fill="none" xmlns="http://www.w3.org/2000/svg">
<g id="Logo">
<g id="Vector">
<path d="M12.4888 15.0808C12.9167 15.0623 13.3454 15.0757 13.7711 15.1208C15.2131 15.2691 16.3976 16.0007 17.4191 16.9705L20.4696 12.2328C18.849 10.833 17.1564 10.2581 14.7084 10.2581C11.8674 10.2581 9.4589 11.5062 8.33277 12.7427L7.79373 13.3343V10.5347H2V34H7.9448V19.7985C7.9448 18.4287 8.40658 17.0539 9.4898 16.1323C10.3344 15.4241 11.4022 15.1324 12.4888 15.0808Z" fill="#1548EF"/>
<path d="M45.0956 22.1743C45.0956 15.3811 39.7927 10.2581 32.7601 10.2581C25.754 10.2581 20.4695 15.3612 20.4695 22.1279C20.4695 28.8946 25.8123 33.9994 32.8982 33.9994C35.4757 34.0226 38.0058 33.3102 40.189 31.9466C42.1298 30.7197 43.6667 28.9536 44.6094 26.8666H39.3316C38.0329 28.7124 35.6121 29.849 32.9865 29.849C29.252 29.849 26.3467 27.5973 25.5825 24.1145L25.5226 23.8461H44.984C45.0535 23.2914 45.0908 22.7333 45.0956 22.1743ZM25.5575 20.1281L25.6341 19.8481C26.5465 16.5343 29.3419 14.3953 32.7601 14.3953C36.1782 14.3953 39.0868 16.589 39.9326 19.8514L40.0042 20.1281H25.5575Z" fill="#1548EF"/>
<path d="M82.1763 10.2581C75.0753 10.2581 69.7219 15.3614 69.7219 22.1282C69.7219 28.895 75.0753 34 82.1763 34C85.8623 34 89.1837 32.4143 91.2906 29.6489L91.5615 29.296L91.679 29.7218C92.3603 32.1658 94.5746 33.4565 98.0817 33.4565H99.4784V29.0077H99.2433C97.6439 29.0077 96.6492 28.1097 96.6492 26.6632V10.8082H91.4354V14.7847L91.0437 14.3042C88.9163 11.6996 85.7669 10.2581 82.1763 10.2581ZM82.718 29.5445C78.3678 29.5445 75.0872 26.3566 75.0872 22.1282C75.0872 17.8997 78.3678 14.7135 82.718 14.7135C87.0409 14.7135 90.301 17.9014 90.301 22.1282C90.301 26.355 87.0409 29.5512 82.718 29.5512V29.5445Z" fill="#1548EF"/>
<path d="M108.808 30.9795L108.937 30.8918L109.063 30.9846C111.747 32.9565 115.023 34 118.534 34H120V29.6626H118.873C116.728 29.6754 114.631 29.0277 112.861 27.806L112.644 27.6581L112.823 27.4656C116.767 23.2159 118.939 17.8865 118.939 12.4575C118.939 6.00731 115.704 2 110.477 2C104.875 2 101.531 6.46975 101.531 13.9652C101.531 19.2498 102.951 23.9362 105.636 27.5275L105.772 27.7114L105.432 27.9676C104.223 28.8477 103.688 29.238 102.22 29.8328L104.093 33.4292C106.067 32.7296 106.988 32.2104 108.808 30.9795ZM110.34 6.33738C112.534 6.33738 113.845 8.62555 113.845 12.4575C113.845 16.549 112.353 20.6458 109.644 23.9946L109.447 24.2387L109.276 23.9706C107.55 21.1598 106.637 17.5788 106.637 13.611C106.634 8.98829 107.986 6.33738 110.332 6.33738H110.34Z" fill="#1548EF"/>
<path d="M57.4527 34C63.9667 34 68.6958 30.8968 68.6958 26.6298C68.6958 23.0421 65.4388 20.7095 58.7404 19.501C54.5559 18.7889 52.4355 17.6045 52.4355 15.9771C52.4355 14.3496 54.5436 13.1445 57.3192 13.1445C60.2055 13.1445 62.3839 14.5099 62.3839 16.3219V16.4426H68.1529V16.3219C68.1529 12.2756 63.5152 9.2258 57.3631 9.2258C51.1636 9.2258 46.6647 12.1946 46.6647 16.2943C46.6647 19.8009 50.0235 22.3197 56.1211 23.3886C60.6693 24.1644 62.881 25.3506 62.881 27.0091C62.881 28.7607 60.5867 30.083 57.5441 30.083C54.382 30.083 51.8927 28.5521 51.8927 26.597V26.4746H46.1218V26.597C46.1201 30.8157 50.9915 34 57.4527 34Z" fill="#1548EF"/>
</g>
<g id="channels">
<path d="M51.8852 51.1601C51.0959 51.1601 50.3972 51.0161 49.7892 50.7281C49.1812 50.4401 48.6959 50.0241 48.3332 49.4801C47.9812 48.9255 47.7892 48.2641 47.7572 47.4961C47.7465 47.3255 47.7412 47.1121 47.7412 46.8561C47.7412 46.5895 47.7465 46.3708 47.7572 46.2001C47.7892 45.4215 47.9812 44.7601 48.3332 44.2161C48.6852 43.6615 49.1652 43.2401 49.7732 42.9521C50.3919 42.6641 51.0959 42.5201 51.8852 42.5201C52.6212 42.5201 53.2505 42.6268 53.7732 42.8401C54.3065 43.0428 54.7332 43.2988 55.0532 43.6081C55.3839 43.9175 55.6292 44.2375 55.7892 44.5681C55.9599 44.8881 56.0505 45.1708 56.0612 45.4161C56.0719 45.5228 56.0345 45.6188 55.9492 45.7041C55.8639 45.7788 55.7679 45.8161 55.6612 45.8161H53.6292C53.5119 45.8161 53.4212 45.7895 53.3572 45.7361C53.2932 45.6828 53.2345 45.6028 53.1812 45.4961C53.0532 45.1655 52.8879 44.9308 52.6852 44.7921C52.4932 44.6535 52.2425 44.5841 51.9332 44.5841C51.5065 44.5841 51.1759 44.7228 50.9412 45.0001C50.7172 45.2775 50.5945 45.7041 50.5732 46.2801C50.5625 46.7068 50.5625 47.0855 50.5732 47.4161C50.6052 48.0028 50.7332 48.4295 50.9572 48.6961C51.1812 48.9628 51.5065 49.0961 51.9332 49.0961C52.2639 49.0961 52.5252 49.0268 52.7172 48.8881C52.9092 48.7388 53.0639 48.5041 53.1812 48.1841C53.2345 48.0775 53.2932 47.9975 53.3572 47.9441C53.4212 47.8908 53.5119 47.8641 53.6292 47.8641H55.6612C55.7679 47.8641 55.8639 47.9015 55.9492 47.9761C56.0345 48.0508 56.0719 48.1468 56.0612 48.2641C56.0505 48.4348 55.9972 48.6428 55.9012 48.8881C55.8052 49.1335 55.6559 49.3895 55.4532 49.6561C55.2505 49.9228 54.9839 50.1681 54.6532 50.3921C54.3332 50.6161 53.9439 50.8028 53.4852 50.9521C53.0265 51.0908 52.4932 51.1601 51.8852 51.1601Z" fill="#F38744"/>
<path d="M57.8987 51.0001C57.7814 51.0001 57.6854 50.9628 57.6107 50.8881C57.536 50.8028 57.4987 50.7068 57.4987 50.6001V40.0401C57.4987 39.9228 57.536 39.8268 57.6107 39.7521C57.6854 39.6775 57.7814 39.6401 57.8987 39.6401H59.9467C60.064 39.6401 60.16 39.6775 60.2347 39.7521C60.3094 39.8268 60.3467 39.9228 60.3467 40.0401V43.6081C60.6347 43.2775 60.9867 43.0161 61.4027 42.8241C61.8294 42.6215 62.32 42.5201 62.8747 42.5201C63.4934 42.5201 64.0427 42.6588 64.5227 42.9361C65.0134 43.2135 65.3974 43.6188 65.6747 44.1521C65.952 44.6855 66.0907 45.3468 66.0907 46.1361V50.6001C66.0907 50.7068 66.0534 50.8028 65.9787 50.8881C65.904 50.9628 65.808 51.0001 65.6907 51.0001H63.6267C63.52 51.0001 63.424 50.9628 63.3387 50.8881C63.264 50.8028 63.2267 50.7068 63.2267 50.6001V46.2321C63.2267 45.7308 63.104 45.3468 62.8587 45.0801C62.624 44.8028 62.2774 44.6641 61.8187 44.6641C61.3707 44.6641 61.0134 44.8028 60.7467 45.0801C60.48 45.3468 60.3467 45.7308 60.3467 46.2321V50.6001C60.3467 50.7068 60.3094 50.8028 60.2347 50.8881C60.16 50.9628 60.064 51.0001 59.9467 51.0001H57.8987Z" fill="#F38744"/>
<path d="M70.401 51.1601C69.825 51.1601 69.3076 51.0535 68.849 50.8401C68.401 50.6161 68.0436 50.3175 67.777 49.9441C67.5103 49.5708 67.377 49.1495 67.377 48.6801C67.377 47.9228 67.6863 47.3255 68.305 46.8881C68.9236 46.4401 69.745 46.1361 70.769 45.9761L72.769 45.6721V45.4481C72.769 45.0641 72.689 44.7708 72.529 44.5681C72.369 44.3655 72.0756 44.2641 71.649 44.2641C71.3503 44.2641 71.105 44.3228 70.913 44.4401C70.7316 44.5575 70.5876 44.7175 70.481 44.9201C70.385 45.0588 70.2516 45.1281 70.081 45.1281H68.289C68.1716 45.1281 68.081 45.0961 68.017 45.0321C67.953 44.9575 67.9263 44.8721 67.937 44.7761C67.937 44.5841 68.0063 44.3655 68.145 44.1201C68.2943 43.8641 68.5183 43.6135 68.817 43.3681C69.1156 43.1228 69.4996 42.9201 69.969 42.7601C70.4383 42.6001 71.009 42.5201 71.681 42.5201C72.3636 42.5201 72.9503 42.6001 73.441 42.7601C73.9316 42.9201 74.3316 43.1441 74.641 43.4321C74.9503 43.7201 75.1743 44.0615 75.313 44.4561C75.4623 44.8401 75.537 45.2668 75.537 45.7361V50.6001C75.537 50.7068 75.4943 50.8028 75.409 50.8881C75.3343 50.9628 75.2436 51.0001 75.137 51.0001H73.281C73.1636 51.0001 73.0676 50.9628 72.993 50.8881C72.9183 50.8028 72.881 50.7068 72.881 50.6001V50.0401C72.7423 50.2428 72.5556 50.4295 72.321 50.6001C72.0863 50.7708 71.809 50.9041 71.489 51.0001C71.1796 51.1068 70.817 51.1601 70.401 51.1601ZM71.153 49.3361C71.4623 49.3361 71.7396 49.2721 71.985 49.1441C72.241 49.0055 72.4383 48.7975 72.577 48.5201C72.7263 48.2321 72.801 47.8748 72.801 47.4481V47.2241L71.441 47.4641C70.9396 47.5495 70.5716 47.6828 70.337 47.8641C70.113 48.0348 70.001 48.2375 70.001 48.4721C70.001 48.6535 70.0543 48.8081 70.161 48.9361C70.2676 49.0641 70.4063 49.1655 70.577 49.2401C70.7583 49.3041 70.9503 49.3361 71.153 49.3361Z" fill="#F38744"/>
<path d="M77.7425 51.0001C77.6251 51.0001 77.5291 50.9628 77.4545 50.8881C77.3798 50.8028 77.3425 50.7068 77.3425 50.6001V43.0801C77.3425 42.9628 77.3798 42.8668 77.4545 42.7921C77.5291 42.7175 77.6251 42.6801 77.7425 42.6801H79.5825C79.6998 42.6801 79.7958 42.7175 79.8705 42.7921C79.9558 42.8668 79.9985 42.9628 79.9985 43.0801V43.6881C80.2651 43.3575 80.6225 43.0801 81.0705 42.8561C81.5185 42.6321 82.0465 42.5201 82.6545 42.5201C83.2731 42.5201 83.8171 42.6588 84.2865 42.9361C84.7665 43.2135 85.1398 43.6188 85.4065 44.1521C85.6838 44.6855 85.8225 45.3468 85.8225 46.1361V50.6001C85.8225 50.7068 85.7851 50.8028 85.7105 50.8881C85.6358 50.9628 85.5398 51.0001 85.4225 51.0001H83.4065C83.2998 51.0001 83.2038 50.9628 83.1185 50.8881C83.0438 50.8028 83.0065 50.7068 83.0065 50.6001V46.2321C83.0065 45.7308 82.8838 45.3468 82.6385 45.0801C82.4038 44.8028 82.0518 44.6641 81.5825 44.6641C81.1451 44.6641 80.7931 44.8028 80.5265 45.0801C80.2705 45.3468 80.1425 45.7308 80.1425 46.2321V50.6001C80.1425 50.7068 80.0998 50.8028 80.0145 50.8881C79.9398 50.9628 79.8491 51.0001 79.7425 51.0001H77.7425Z" fill="#F38744"/>
<path d="M88.0237 51.0001C87.9064 51.0001 87.8104 50.9628 87.7357 50.8881C87.661 50.8028 87.6237 50.7068 87.6237 50.6001V43.0801C87.6237 42.9628 87.661 42.8668 87.7357 42.7921C87.8104 42.7175 87.9064 42.6801 88.0237 42.6801H89.8637C89.981 42.6801 90.077 42.7175 90.1517 42.7921C90.237 42.8668 90.2797 42.9628 90.2797 43.0801V43.6881C90.5464 43.3575 90.9037 43.0801 91.3517 42.8561C91.7997 42.6321 92.3277 42.5201 92.9357 42.5201C93.5544 42.5201 94.0984 42.6588 94.5677 42.9361C95.0477 43.2135 95.421 43.6188 95.6877 44.1521C95.965 44.6855 96.1037 45.3468 96.1037 46.1361V50.6001C96.1037 50.7068 96.0664 50.8028 95.9917 50.8881C95.917 50.9628 95.821 51.0001 95.7037 51.0001H93.6877C93.581 51.0001 93.485 50.9628 93.3997 50.8881C93.325 50.8028 93.2877 50.7068 93.2877 50.6001V46.2321C93.2877 45.7308 93.165 45.3468 92.9197 45.0801C92.685 44.8028 92.333 44.6641 91.8637 44.6641C91.4264 44.6641 91.0744 44.8028 90.8077 45.0801C90.5517 45.3468 90.4237 45.7308 90.4237 46.2321V50.6001C90.4237 50.7068 90.381 50.8028 90.2957 50.8881C90.221 50.9628 90.1304 51.0001 90.0237 51.0001H88.0237Z" fill="#F38744"/>
<path d="M101.745 51.1601C100.486 51.1601 99.4836 50.8188 98.737 50.1361C97.9903 49.4535 97.601 48.4401 97.569 47.0961C97.569 47.0215 97.569 46.9255 97.569 46.8081C97.569 46.6908 97.569 46.6001 97.569 46.5361C97.601 45.6935 97.7876 44.9735 98.129 44.3761C98.481 43.7681 98.961 43.3095 99.569 43.0001C100.188 42.6801 100.908 42.5201 101.729 42.5201C102.668 42.5201 103.441 42.7068 104.049 43.0801C104.668 43.4535 105.132 43.9601 105.441 44.6001C105.75 45.2401 105.905 45.9708 105.905 46.7921V47.1761C105.905 47.2935 105.868 47.3895 105.793 47.4641C105.718 47.5388 105.622 47.5761 105.505 47.5761H100.385C100.385 47.5868 100.385 47.6028 100.385 47.6241C100.385 47.6455 100.385 47.6668 100.385 47.6881C100.396 47.9975 100.449 48.2801 100.545 48.5361C100.652 48.7921 100.801 48.9948 100.993 49.1441C101.196 49.2935 101.441 49.3681 101.729 49.3681C101.942 49.3681 102.118 49.3361 102.257 49.2721C102.406 49.1975 102.529 49.1175 102.625 49.0321C102.721 48.9361 102.796 48.8561 102.849 48.7921C102.945 48.6748 103.02 48.6055 103.073 48.5841C103.137 48.5521 103.233 48.5361 103.361 48.5361H105.345C105.452 48.5361 105.537 48.5681 105.601 48.6321C105.676 48.6961 105.708 48.7815 105.697 48.8881C105.686 49.0695 105.596 49.2881 105.425 49.5441C105.254 49.8001 105.004 50.0561 104.673 50.3121C104.353 50.5575 103.948 50.7601 103.457 50.9201C102.966 51.0801 102.396 51.1601 101.745 51.1601ZM100.385 45.9921H103.089V45.9601C103.089 45.6081 103.036 45.3095 102.929 45.0641C102.833 44.8081 102.678 44.6108 102.465 44.4721C102.262 44.3335 102.017 44.2641 101.729 44.2641C101.452 44.2641 101.212 44.3335 101.009 44.4721C100.806 44.6108 100.652 44.8081 100.545 45.0641C100.438 45.3095 100.385 45.6081 100.385 45.9601V45.9921Z" fill="#F38744"/>
<path d="M107.805 51.0001C107.688 51.0001 107.592 50.9628 107.517 50.8881C107.442 50.8028 107.405 50.7068 107.405 50.6001V40.0401C107.405 39.9228 107.442 39.8268 107.517 39.7521C107.592 39.6775 107.688 39.6401 107.805 39.6401H109.693C109.81 39.6401 109.906 39.6775 109.981 39.7521C110.056 39.8268 110.093 39.9228 110.093 40.0401V50.6001C110.093 50.7068 110.056 50.8028 109.981 50.8881C109.906 50.9628 109.81 51.0001 109.693 51.0001H107.805Z" fill="#F38744"/>
<path d="M115.407 51.1601C114.714 51.1601 114.122 51.0855 113.631 50.9361C113.151 50.7761 112.756 50.5841 112.447 50.3601C112.148 50.1361 111.924 49.9068 111.775 49.6721C111.626 49.4268 111.546 49.2135 111.535 49.0321C111.524 48.9148 111.562 48.8188 111.647 48.7441C111.732 48.6695 111.823 48.6321 111.919 48.6321H113.743C113.775 48.6321 113.802 48.6375 113.823 48.6481C113.855 48.6588 113.887 48.6801 113.919 48.7121C114.058 48.7868 114.196 48.8828 114.335 49.0001C114.474 49.1068 114.634 49.2028 114.815 49.2881C114.996 49.3735 115.215 49.4161 115.471 49.4161C115.77 49.4161 116.02 49.3575 116.223 49.2401C116.426 49.1121 116.527 48.9361 116.527 48.7121C116.527 48.5415 116.479 48.4028 116.383 48.2961C116.287 48.1788 116.09 48.0668 115.791 47.9601C115.503 47.8535 115.066 47.7468 114.479 47.6401C113.924 47.5121 113.439 47.3468 113.023 47.1441C112.607 46.9308 112.287 46.6588 112.063 46.3281C111.839 45.9868 111.727 45.5761 111.727 45.0961C111.727 44.6695 111.866 44.2588 112.143 43.8641C112.42 43.4695 112.826 43.1495 113.359 42.9041C113.892 42.6481 114.554 42.5201 115.343 42.5201C115.951 42.5201 116.484 42.5948 116.943 42.7441C117.402 42.8828 117.786 43.0641 118.095 43.2881C118.404 43.5121 118.639 43.7415 118.799 43.9761C118.959 44.2108 119.044 44.4241 119.055 44.6161C119.066 44.7228 119.034 44.8188 118.959 44.9041C118.884 44.9788 118.799 45.0161 118.703 45.0161H117.039C116.996 45.0161 116.954 45.0108 116.911 45.0001C116.868 44.9788 116.831 44.9575 116.799 44.9361C116.671 44.8721 116.543 44.7868 116.415 44.6801C116.287 44.5735 116.138 44.4775 115.967 44.3921C115.796 44.3068 115.583 44.2641 115.327 44.2641C115.039 44.2641 114.815 44.3281 114.655 44.4561C114.495 44.5841 114.415 44.7495 114.415 44.9521C114.415 45.0908 114.458 45.2188 114.543 45.3361C114.639 45.4535 114.826 45.5601 115.103 45.6561C115.391 45.7521 115.834 45.8588 116.431 45.9761C117.167 46.0935 117.754 46.2855 118.191 46.5521C118.628 46.8081 118.938 47.1121 119.119 47.4641C119.311 47.8055 119.407 48.1681 119.407 48.5521C119.407 49.0641 119.252 49.5175 118.943 49.9121C118.634 50.3068 118.18 50.6161 117.583 50.8401C116.996 51.0535 116.271 51.1601 115.407 51.1601Z" fill="#F38744"/>
</g>
</g>
</svg>
