<svg width="122" height="61" viewBox="0 0 122 61" fill="none" xmlns="http://www.w3.org/2000/svg">
<g id="Logo">
<g id="Vector">
<path d="M12.4888 15.4753C12.9167 15.4569 13.3454 15.4703 13.7711 15.5153C15.2131 15.6636 16.3976 16.3952 17.4191 17.3651L20.4696 12.6273C18.849 11.2275 17.1564 10.6526 14.7084 10.6526C11.8674 10.6526 9.4589 11.9008 8.33277 13.1373L7.79373 13.7289V10.9292H2V34.3945H7.9448V20.193C7.9448 18.8232 8.40658 17.4484 9.4898 16.5268C10.3344 15.8186 11.4022 15.527 12.4888 15.4753Z" fill="#1548EF"/>
<path d="M45.0956 22.5688C45.0956 15.7757 39.7927 10.6526 32.7601 10.6526C25.754 10.6526 20.4695 15.7558 20.4695 22.5225C20.4695 29.2891 25.8123 34.394 32.8982 34.394C35.4757 34.4171 38.0058 33.7047 40.189 32.3411C42.1298 31.1143 43.6667 29.3481 44.6094 27.2611H39.3316C38.0329 29.1069 35.6121 30.2435 32.9865 30.2435C29.252 30.2435 26.3467 27.9918 25.5825 24.509L25.5226 24.2406H44.984C45.0535 23.686 45.0908 23.1278 45.0956 22.5688ZM25.5575 20.5226L25.6341 20.2426C26.5465 16.9288 29.3419 14.7898 32.7601 14.7898C36.1782 14.7898 39.0868 16.9835 39.9326 20.2459L40.0042 20.5226H25.5575Z" fill="#1548EF"/>
<path d="M82.1763 10.6526C75.0753 10.6526 69.7219 15.7559 69.7219 22.5227C69.7219 29.2896 75.0753 34.3945 82.1763 34.3945C85.8623 34.3945 89.1837 32.8089 91.2906 30.0435L91.5615 29.6905L91.679 30.1164C92.3603 32.5603 94.5746 33.8511 98.0817 33.8511H99.4784V29.4022H99.2433C97.6439 29.4022 96.6492 28.5042 96.6492 27.0577V11.2027H91.4354V15.1793L91.0437 14.6988C88.9163 12.0941 85.7669 10.6526 82.1763 10.6526ZM82.718 29.9391C78.3678 29.9391 75.0872 26.7512 75.0872 22.5227C75.0872 18.2943 78.3678 15.108 82.718 15.108C87.0409 15.108 90.301 18.2959 90.301 22.5227C90.301 26.7495 87.0409 29.9457 82.718 29.9457V29.9391Z" fill="#1548EF"/>
<path d="M108.808 31.374L108.937 31.2863L109.063 31.3792C111.747 33.351 115.023 34.3945 118.534 34.3945H120V30.0571H118.873C116.728 30.0699 114.631 29.4222 112.861 28.2005L112.644 28.0526L112.823 27.8601C116.767 23.6104 118.939 18.2811 118.939 12.852C118.939 6.40184 115.704 2.39453 110.477 2.39453C104.875 2.39453 101.531 6.86428 101.531 14.3597C101.531 19.6443 102.951 24.3307 105.636 27.922L105.772 28.1059L105.432 28.3621C104.223 29.2423 103.688 29.6325 102.22 30.2273L104.093 33.8238C106.067 33.1241 106.988 32.6049 108.808 31.374ZM110.34 6.73191C112.534 6.73191 113.845 9.02008 113.845 12.852C113.845 16.9436 112.353 21.0403 109.644 24.3892L109.447 24.6333L109.276 24.3651C107.55 21.5543 106.637 17.9733 106.637 14.0056C106.634 9.38282 107.986 6.73191 110.332 6.73191H110.34Z" fill="#1548EF"/>
<path d="M57.4527 34.3945C63.9667 34.3945 68.6958 31.2913 68.6958 27.0243C68.6958 23.4366 65.4388 21.104 58.7404 19.8955C54.5559 19.1835 52.4355 17.9991 52.4355 16.3716C52.4355 14.7441 54.5436 13.539 57.3192 13.539C60.2055 13.539 62.3839 14.9045 62.3839 16.7164V16.8371H68.1529V16.7164C68.1529 12.6701 63.5152 9.62033 57.3631 9.62033C51.1636 9.62033 46.6647 12.5891 46.6647 16.6888C46.6647 20.1955 50.0235 22.7143 56.1211 23.7832C60.6693 24.559 62.881 25.7451 62.881 27.4036C62.881 29.1552 60.5867 30.4775 57.5441 30.4775C54.382 30.4775 51.8927 28.9466 51.8927 26.9916V26.8692H46.1218V26.9916C46.1201 31.2103 50.9915 34.3945 57.4527 34.3945Z" fill="#1548EF"/>
</g>
<g id="glee">
<path d="M91.1645 54.9142C90.3431 54.9142 89.6605 54.8075 89.1165 54.5942C88.5831 54.3808 88.1565 54.1248 87.8365 53.8262C87.5271 53.5275 87.3031 53.2288 87.1645 52.9302C87.0258 52.6422 86.9511 52.4128 86.9405 52.2422C86.9298 52.1248 86.9671 52.0235 87.0525 51.9382C87.1378 51.8635 87.2391 51.8262 87.3565 51.8262H89.3885C89.4951 51.8262 89.5805 51.8528 89.6445 51.9062C89.7085 51.9595 89.7618 52.0448 89.8045 52.1622C89.8685 52.2795 89.9431 52.3968 90.0285 52.5142C90.1138 52.6422 90.2365 52.7488 90.3965 52.8342C90.5671 52.9195 90.7965 52.9622 91.0845 52.9622C91.4045 52.9622 91.6711 52.9088 91.8845 52.8022C92.0978 52.7062 92.2578 52.5408 92.3645 52.3062C92.4711 52.0822 92.5245 51.7782 92.5245 51.3942V50.3222C92.2791 50.5888 91.9645 50.8075 91.5805 50.9782C91.1965 51.1382 90.7325 51.2182 90.1885 51.2182C89.6445 51.2182 89.1645 51.1382 88.7485 50.9782C88.3325 50.8182 87.9858 50.5782 87.7085 50.2582C87.4311 49.9382 87.2125 49.5488 87.0525 49.0902C86.9031 48.6315 86.8125 48.1035 86.7805 47.5062C86.7698 47.2288 86.7698 46.9462 86.7805 46.6582C86.8125 46.0928 86.9031 45.5808 87.0525 45.1222C87.2018 44.6528 87.4151 44.2582 87.6925 43.9382C87.9805 43.6075 88.3325 43.3568 88.7485 43.1862C89.1645 43.0048 89.6445 42.9142 90.1885 42.9142C90.7645 42.9142 91.2551 43.0262 91.6605 43.2502C92.0765 43.4635 92.4178 43.7355 92.6845 44.0662V43.4742C92.6845 43.3675 92.7218 43.2768 92.7965 43.2022C92.8711 43.1168 92.9671 43.0742 93.0845 43.0742H94.9245C95.0418 43.0742 95.1378 43.1168 95.2125 43.2022C95.2978 43.2768 95.3405 43.3675 95.3405 43.4742V51.1702C95.3405 51.9808 95.1751 52.6635 94.8445 53.2182C94.5245 53.7728 94.0498 54.1942 93.4205 54.4822C92.8018 54.7702 92.0498 54.9142 91.1645 54.9142ZM91.0525 49.1382C91.3938 49.1382 91.6711 49.0635 91.8845 48.9142C92.0978 48.7648 92.2525 48.5728 92.3485 48.3382C92.4551 48.1035 92.5138 47.8528 92.5245 47.5862C92.5351 47.4688 92.5405 47.3035 92.5405 47.0902C92.5405 46.8768 92.5351 46.7168 92.5245 46.6102C92.5138 46.3328 92.4551 46.0768 92.3485 45.8422C92.2525 45.6075 92.0978 45.4208 91.8845 45.2822C91.6711 45.1328 91.3938 45.0582 91.0525 45.0582C90.7005 45.0582 90.4178 45.1328 90.2045 45.2822C90.0018 45.4315 89.8525 45.6342 89.7565 45.8902C89.6711 46.1462 89.6178 46.4288 89.5965 46.7382C89.5858 46.9728 89.5858 47.2128 89.5965 47.4582C89.6178 47.7675 89.6711 48.0502 89.7565 48.3062C89.8525 48.5622 90.0018 48.7648 90.2045 48.9142C90.4178 49.0635 90.7005 49.1382 91.0525 49.1382Z" fill="#2ED3B7"/>
<path d="M97.6251 51.3942C97.5078 51.3942 97.4118 51.3568 97.3371 51.2822C97.2624 51.1968 97.2251 51.1008 97.2251 50.9942V40.4342C97.2251 40.3168 97.2624 40.2208 97.3371 40.1462C97.4118 40.0715 97.5078 40.0342 97.6251 40.0342H99.5131C99.6304 40.0342 99.7264 40.0715 99.8011 40.1462C99.8758 40.2208 99.9131 40.3168 99.9131 40.4342V50.9942C99.9131 51.1008 99.8758 51.1968 99.8011 51.2822C99.7264 51.3568 99.6304 51.3942 99.5131 51.3942H97.6251Z" fill="#2ED3B7"/>
<path d="M105.643 51.5542C104.385 51.5542 103.382 51.2128 102.635 50.5302C101.889 49.8475 101.499 48.8342 101.467 47.4902C101.467 47.4155 101.467 47.3195 101.467 47.2022C101.467 47.0848 101.467 46.9942 101.467 46.9302C101.499 46.0875 101.686 45.3675 102.027 44.7702C102.379 44.1622 102.859 43.7035 103.467 43.3942C104.086 43.0742 104.806 42.9142 105.627 42.9142C106.566 42.9142 107.339 43.1008 107.947 43.4742C108.566 43.8475 109.03 44.3542 109.339 44.9942C109.649 45.6342 109.803 46.3648 109.803 47.1862V47.5702C109.803 47.6875 109.766 47.7835 109.691 47.8582C109.617 47.9328 109.521 47.9702 109.403 47.9702H104.283C104.283 47.9808 104.283 47.9968 104.283 48.0182C104.283 48.0395 104.283 48.0608 104.283 48.0822C104.294 48.3915 104.347 48.6742 104.443 48.9302C104.55 49.1862 104.699 49.3888 104.891 49.5382C105.094 49.6875 105.339 49.7622 105.627 49.7622C105.841 49.7622 106.017 49.7302 106.155 49.6662C106.305 49.5915 106.427 49.5115 106.523 49.4262C106.619 49.3302 106.694 49.2502 106.747 49.1862C106.843 49.0688 106.918 48.9995 106.971 48.9782C107.035 48.9462 107.131 48.9302 107.259 48.9302H109.243C109.35 48.9302 109.435 48.9622 109.499 49.0262C109.574 49.0902 109.606 49.1755 109.595 49.2822C109.585 49.4635 109.494 49.6822 109.323 49.9382C109.153 50.1942 108.902 50.4502 108.571 50.7062C108.251 50.9515 107.846 51.1542 107.355 51.3142C106.865 51.4742 106.294 51.5542 105.643 51.5542ZM104.283 46.3862H106.987V46.3542C106.987 46.0022 106.934 45.7035 106.827 45.4582C106.731 45.2022 106.577 45.0048 106.363 44.8662C106.161 44.7275 105.915 44.6582 105.627 44.6582C105.35 44.6582 105.11 44.7275 104.907 44.8662C104.705 45.0048 104.55 45.2022 104.443 45.4582C104.337 45.7035 104.283 46.0022 104.283 46.3542V46.3862Z" fill="#2ED3B7"/>
<path d="M115.143 51.5542C113.885 51.5542 112.882 51.2128 112.135 50.5302C111.389 49.8475 110.999 48.8342 110.967 47.4902C110.967 47.4155 110.967 47.3195 110.967 47.2022C110.967 47.0848 110.967 46.9942 110.967 46.9302C110.999 46.0875 111.186 45.3675 111.527 44.7702C111.879 44.1622 112.359 43.7035 112.967 43.3942C113.586 43.0742 114.306 42.9142 115.127 42.9142C116.066 42.9142 116.839 43.1008 117.447 43.4742C118.066 43.8475 118.53 44.3542 118.839 44.9942C119.149 45.6342 119.303 46.3648 119.303 47.1862V47.5702C119.303 47.6875 119.266 47.7835 119.191 47.8582C119.117 47.9328 119.021 47.9702 118.903 47.9702H113.783C113.783 47.9808 113.783 47.9968 113.783 48.0182C113.783 48.0395 113.783 48.0608 113.783 48.0822C113.794 48.3915 113.847 48.6742 113.943 48.9302C114.05 49.1862 114.199 49.3888 114.391 49.5382C114.594 49.6875 114.839 49.7622 115.127 49.7622C115.341 49.7622 115.517 49.7302 115.655 49.6662C115.805 49.5915 115.927 49.5115 116.023 49.4262C116.119 49.3302 116.194 49.2502 116.247 49.1862C116.343 49.0688 116.418 48.9995 116.471 48.9782C116.535 48.9462 116.631 48.9302 116.759 48.9302H118.743C118.85 48.9302 118.935 48.9622 118.999 49.0262C119.074 49.0902 119.106 49.1755 119.095 49.2822C119.085 49.4635 118.994 49.6822 118.823 49.9382C118.653 50.1942 118.402 50.4502 118.071 50.7062C117.751 50.9515 117.346 51.1542 116.855 51.3142C116.365 51.4742 115.794 51.5542 115.143 51.5542ZM113.783 46.3862H116.487V46.3542C116.487 46.0022 116.434 45.7035 116.327 45.4582C116.231 45.2022 116.077 45.0048 115.863 44.8662C115.661 44.7275 115.415 44.6582 115.127 44.6582C114.85 44.6582 114.61 44.7275 114.407 44.8662C114.205 45.0048 114.05 45.2022 113.943 45.4582C113.837 45.7035 113.783 46.0022 113.783 46.3542V46.3862Z" fill="#2ED3B7"/>
</g>
</g>
</svg>
