<svg width="109" height="32" viewBox="0 0 109 32" fill="none" xmlns="http://www.w3.org/2000/svg">
<g id="Logo">
<path id="Path" d="M11.6554 13.4051C12.0357 13.3888 12.4168 13.4006 12.7953 13.4407C14.077 13.5725 15.1299 14.2228 16.0379 15.0849L18.7494 10.8736C17.309 9.62933 15.8044 9.11829 13.6284 9.11829C11.103 9.11829 8.96216 10.2278 7.96116 11.3269L7.48202 11.8527V9.36418H2.33203V30.2222H7.6163V17.5987C7.6163 16.3811 8.02677 15.159 8.98963 14.3398C9.74038 13.7103 10.6895 13.4511 11.6554 13.4051Z" fill="#1548EF"/>
<path id="Shape" d="M40.6399 19.7105C40.6399 13.6721 35.9262 9.11829 29.6749 9.11829C23.4473 9.11829 18.75 13.6544 18.75 19.6693C18.75 25.6841 23.4991 30.2217 29.7978 30.2217C32.0889 30.2423 34.3379 29.6091 36.2785 28.397C38.0036 27.3064 39.3697 25.7365 40.2077 23.8814H35.5163C34.3619 25.5221 32.2101 26.5324 29.8762 26.5324C26.5567 26.5324 23.9742 24.5309 23.2949 21.4351L23.2416 21.1966H40.5407C40.6025 20.7035 40.6356 20.2073 40.6399 19.7105ZM23.2727 17.8916L23.3408 17.6427C24.1518 14.6972 26.6366 12.7958 29.6749 12.7958C32.7133 12.7958 35.2987 14.7458 36.0505 17.6457L36.1142 17.8916H23.2727Z" fill="#1548EF"/>
<path id="Shape_2" d="M73.5999 9.11829C67.2879 9.11829 62.5293 13.6546 62.5293 19.6695C62.5293 25.6845 67.2879 30.2222 73.5999 30.2222C76.8763 30.2222 79.8287 28.8127 81.7016 26.3546L81.9423 26.0409L82.0468 26.4194C82.6524 28.5918 84.6206 29.7391 87.738 29.7391H88.9795V25.7846H88.7706C87.3489 25.7846 86.4647 24.9864 86.4647 23.7006V9.60726H81.8303V13.142L81.482 12.7149C79.591 10.3996 76.7915 9.11829 73.5999 9.11829ZM74.0814 26.2618C70.2146 26.2618 67.2985 23.4281 67.2985 19.6695C67.2985 15.9109 70.2146 13.0787 74.0814 13.0787C77.924 13.0787 80.8219 15.9124 80.8219 19.6695C80.8219 23.4267 77.924 26.2677 74.0814 26.2677V26.2618Z" fill="#1548EF"/>
<path id="Shape_3" d="M97.2736 27.5373L97.3886 27.4594L97.5006 27.5419C99.8859 29.2946 102.798 30.2222 105.919 30.2222H107.222V26.3668H106.22C104.314 26.3781 102.45 25.8024 100.876 24.7164L100.684 24.585L100.842 24.4138C104.348 20.6363 106.279 15.8991 106.279 11.0733C106.279 5.33982 103.403 1.77777 98.7568 1.77777C93.7773 1.77777 90.8047 5.75089 90.8047 12.4135C90.8047 17.1109 92.067 21.2766 94.4538 24.4688L94.5749 24.6323L94.2722 24.86C93.1976 25.6424 92.7223 25.9893 91.4177 26.518L93.0826 29.7149C94.8368 29.0929 95.6556 28.6314 97.2736 27.5373ZM98.6358 5.63322C100.585 5.63322 101.751 7.66715 101.751 11.0733C101.751 14.7103 100.425 18.3518 98.0167 21.3285L97.8411 21.5455L97.6898 21.3072C96.1551 18.8087 95.3438 15.6256 95.3438 12.0987C95.3408 7.98958 96.5425 5.63322 98.6282 5.63322H98.6358Z" fill="#1548EF"/>
<path id="Path_2" d="M51.6246 30.2222C57.4148 30.2222 61.6184 27.4638 61.6184 23.6709C61.6184 20.4818 58.7234 18.4084 52.7692 17.3342C49.0497 16.7013 47.1649 15.6485 47.1649 14.2018C47.1649 12.7552 49.0387 11.684 51.5059 11.684C54.0715 11.684 56.0078 12.8977 56.0078 14.5083V14.6156H61.1359V14.5083C61.1359 10.9116 57.0135 8.20068 51.545 8.20068C46.0343 8.20068 42.0352 10.8396 42.0352 14.4838C42.0352 17.6008 45.0209 19.8397 50.441 20.7899C54.4838 21.4795 56.4498 22.5338 56.4498 24.008C56.4498 25.565 54.4104 26.7404 51.7058 26.7404C48.8951 26.7404 46.6824 25.3796 46.6824 23.6418V23.533H41.5527V23.6418C41.5512 27.3917 45.8813 30.2222 51.6246 30.2222Z" fill="#1548EF"/>
</g>
</svg>
