<svg width="101" height="48" viewBox="0 0 101 48" fill="none" xmlns="http://www.w3.org/2000/svg">
<g id="logo-ar 2">
<g id="Group">
<g id="Group_2">
<g id="Mask group">
<mask id="mask0_676_27438" style="mask-type:luminance" maskUnits="userSpaceOnUse" x="53" y="0" width="48" height="48">
<g id="Group_3">
<path id="Vector" d="M53.2119 24.2149C53.2119 36.37 62.3418 46.3926 74.119 47.798H79.8085C90.684 46.5002 99.3023 37.8541 100.558 26.9656V21.4638C99.1947 9.64179 89.151 0.462891 76.9635 0.462891C63.8459 0.462891 53.2119 11.0969 53.2119 24.2149Z" fill="white"/>
</g>
</mask>
<g mask="url(#mask0_676_27438)">
<path id="Vector_2" fill-rule="evenodd" clip-rule="evenodd" d="M76.333 36.9281C77.2984 34.6538 77.9625 32.2622 78.4945 29.8499C79.0277 27.4353 79.4198 24.9911 79.8235 22.5383C80.2171 20.0777 80.5792 17.6368 80.6716 15.2145C80.7707 12.7962 80.6056 10.398 80.0224 8.13625C79.72 7.0195 79.3345 5.85266 78.7969 5.06611C78.6679 4.872 78.5192 4.69172 78.3532 4.52814C78.1892 4.35933 78.0218 4.22131 77.8727 4.13375C77.7224 4.04211 77.5967 3.99722 77.4998 3.98312C77.3983 3.96801 77.2946 3.97912 77.1986 4.0154C76.9574 4.09331 76.6061 4.38159 76.3092 4.76967C76.008 5.15923 75.742 5.63599 75.5227 6.135C75.0842 7.1219 74.863 8.26277 74.7102 9.4567C74.6341 10.0533 74.5796 10.6662 74.5261 11.2895L74.3655 13.1654C74.2674 14.4034 74.1979 15.6435 74.157 16.8848C74.0757 19.368 74.1184 21.8564 74.2627 24.3399C74.4171 26.8569 74.5261 29.3579 74.8259 31.807C74.9788 33.0313 75.1932 34.2431 75.5123 35.4188C75.6872 36.0685 75.8996 36.7075 76.1486 37.3325C76.2102 37.1978 76.2762 37.0646 76.333 36.9281Z" fill="white"/>
</g>
</g>
</g>
<g id="Group_4">
<g id="Mask group_2">
<mask id="mask1_676_27438" style="mask-type:luminance" maskUnits="userSpaceOnUse" x="53" y="0" width="48" height="48">
<g id="Group_5">
<path id="Vector_3" d="M53.2119 24.2149C53.2119 36.37 62.3418 46.3926 74.119 47.798H79.8085C90.684 46.5002 99.3023 37.8541 100.558 26.9656V21.4638C99.1947 9.64179 89.151 0.462891 76.9635 0.462891C63.8459 0.462891 53.2119 11.0969 53.2119 24.2149Z" fill="white"/>
</g>
</mask>
<g mask="url(#mask1_676_27438)">
<path id="Vector_4" fill-rule="evenodd" clip-rule="evenodd" d="M69.6437 39.086C69.8801 37.8554 70.103 36.6233 70.2789 35.3919C70.615 32.9298 70.7686 30.4499 70.4396 28.0294C70.2681 26.8337 70.0277 25.5937 69.6426 24.4825C69.4501 23.926 69.2208 23.3958 68.9303 22.9306C68.7763 22.6861 68.6472 22.521 68.4825 22.3704C68.3233 22.2242 68.1552 22.1236 68.0001 22.0735C67.8425 22.0261 67.6796 22.009 67.5753 22.0439C67.464 22.071 67.3542 22.1311 67.2229 22.2483C66.9583 22.4787 66.689 22.9209 66.4901 23.4044C66.285 23.9072 66.1357 24.431 66.0449 24.9663C65.9391 25.5467 65.8607 26.1317 65.81 26.7194C65.7127 27.9207 65.6789 29.1263 65.7087 30.3312C65.7221 31.55 65.7655 32.8152 65.8249 34.0321C65.8846 35.2505 65.974 36.4389 66.1588 37.5864C66.3584 38.718 66.6315 39.8707 67.0911 40.8009C67.3178 41.2687 67.5928 41.6843 67.92 41.9981C68.087 42.1577 68.2502 42.2875 68.455 42.404C68.5058 42.4326 68.5578 42.4575 68.609 42.4845C69.0616 41.373 69.4233 40.2462 69.6437 39.086Z" fill="white"/>
</g>
</g>
</g>
<g id="Group_6">
<g id="Mask group_3">
<mask id="mask2_676_27438" style="mask-type:luminance" maskUnits="userSpaceOnUse" x="53" y="0" width="48" height="48">
<g id="Group_7">
<path id="Vector_5" d="M53.2119 24.2149C53.2119 36.37 62.3418 46.3926 74.119 47.798H79.8085C90.684 46.5002 99.3023 37.8541 100.558 26.9656V21.4638C99.1947 9.64179 89.151 0.462891 76.9635 0.462891C63.8459 0.462891 53.2119 11.0969 53.2119 24.2149Z" fill="white"/>
</g>
</mask>
<g mask="url(#mask2_676_27438)">
<path id="Vector_6" fill-rule="evenodd" clip-rule="evenodd" d="M85.8615 45.9145C85.3729 44.7332 84.9288 43.5248 84.5774 42.2819C84.4401 41.7938 84.3167 41.3019 84.2075 40.8067C83.7779 41.1826 83.3264 41.5402 82.8337 41.8623C82.2538 42.2396 81.5997 42.5616 80.8432 42.7034C80.4662 42.7664 80.0537 42.7698 79.6704 42.6867C79.3019 42.6125 78.9472 42.4816 78.6189 42.2986C77.9808 41.9558 77.4584 41.5028 76.9902 41.016C76.7732 40.7906 76.5673 40.5549 76.3732 40.3096C76.2062 40.5518 76.0367 40.7919 75.8597 41.0271C75.4579 41.566 75.0155 42.0733 74.5363 42.5446C74.0495 43.0191 73.5316 43.4814 72.9261 43.8617C72.3232 44.239 71.6531 44.5684 70.9026 44.741C70.2251 44.9042 69.492 44.9168 68.7889 44.7885C68.5633 45.2801 68.3326 45.7679 68.1025 46.2577C70.9193 47.3903 73.9275 47.9707 76.9635 47.9673C80.057 47.9708 83.1212 47.368 85.9828 46.1931C85.9428 46.1 85.9008 46.0076 85.8615 45.9145Z" fill="white"/>
</g>
</g>
</g>
<g id="Group_8">
<g id="Mask group_4">
<mask id="mask3_676_27438" style="mask-type:luminance" maskUnits="userSpaceOnUse" x="53" y="0" width="48" height="48">
<g id="Group_9">
<path id="Vector_7" d="M53.2119 24.2149C53.2119 36.37 62.3418 46.3926 74.119 47.798H79.8085C90.684 46.5002 99.3023 37.8541 100.558 26.9656V21.4638C99.1947 9.64179 89.151 0.462891 76.9635 0.462891C63.8459 0.462891 53.2119 11.0969 53.2119 24.2149Z" fill="white"/>
</g>
</mask>
<g mask="url(#mask3_676_27438)">
<path id="Vector_8" fill-rule="evenodd" clip-rule="evenodd" d="M90.4523 20.9581C90.5762 19.7534 90.6193 18.5443 90.5562 17.3481C90.5281 16.7561 90.4706 16.1658 90.3841 15.5795C90.2965 15.0252 90.1566 14.5221 89.9362 14.1374C89.7099 13.7422 89.4391 13.5092 89.1078 13.3983C88.7824 13.2907 88.4325 13.3371 88.1298 13.5345C88.0515 13.5875 87.9776 13.6467 87.9087 13.7115C87.8204 13.8012 87.7324 13.8932 87.6501 13.9923C87.4809 14.1958 87.3275 14.4119 87.1911 14.6386C86.9132 15.105 86.6847 15.6255 86.4995 16.1772C86.1267 17.2806 85.9059 18.4797 85.7278 19.7019L85.227 23.4302C84.9142 25.899 84.7426 28.3836 84.7131 30.872C84.6952 32.8366 84.7887 34.8007 84.9932 36.7548C85.3638 36.1354 85.7213 35.5082 86.0655 34.8737C88.3342 30.5362 89.9299 25.7787 90.4523 20.9581Z" fill="white"/>
</g>
</g>
</g>
<g id="Group_10">
<g id="Mask group_5">
<mask id="mask4_676_27438" style="mask-type:luminance" maskUnits="userSpaceOnUse" x="53" y="0" width="48" height="48">
<g id="Group_11">
<path id="Vector_9" d="M53.2119 24.2149C53.2119 36.37 62.3418 46.3926 74.119 47.798H79.8085C90.684 46.5002 99.3023 37.8541 100.558 26.9656V21.4638C99.1947 9.64179 89.151 0.462891 76.9635 0.462891C63.8459 0.462891 53.2119 11.0969 53.2119 24.2149Z" fill="white"/>
</g>
</mask>
<g mask="url(#mask4_676_27438)">
<path id="Vector_10" fill-rule="evenodd" clip-rule="evenodd" d="M76.9639 0.463262C63.8459 0.463262 53.2119 11.0973 53.2119 24.2152C53.2119 33.8178 58.9111 42.0889 67.1109 45.8324C67.319 45.3887 67.5282 44.9431 67.7334 44.4964C67.6456 44.4618 67.5584 44.4257 67.4719 44.388C67.1001 44.2242 66.7502 44.0148 66.43 43.7647C65.79 43.2683 65.3014 42.6554 64.9115 42.0284C64.523 41.4006 64.2325 40.735 63.9969 40.0924C63.7543 39.4443 63.5762 38.7798 63.4304 38.1172C63.1347 36.7908 63.0056 35.4629 62.9473 34.1673C62.8995 32.884 62.8864 31.5995 62.908 30.3155C62.9529 29.0221 63.0252 27.7054 63.2505 26.3901C63.3581 25.7283 63.4987 25.0723 63.6716 24.4245C63.8582 23.7305 64.1213 23.0593 64.4559 22.4232C64.8083 21.7832 65.2261 21.1239 65.9685 20.5845C66.3358 20.3211 66.8185 20.1051 67.3342 20.0621C67.8566 20.0102 68.3322 20.1289 68.7537 20.3192C69.6033 20.7177 70.1302 21.4445 70.4444 22.0841C70.7517 22.7019 70.9946 23.3496 71.1694 24.0171C71.5033 25.3209 71.694 26.5727 71.8239 27.8749C72.0717 30.4665 71.8617 33.0576 71.4454 35.5679C71.2428 36.8264 70.9991 38.0697 70.7405 39.3077C70.4889 40.5206 70.0901 41.6982 69.6371 42.8287C70.3958 42.9407 71.2187 42.7582 71.9923 42.3144C72.9547 41.7835 73.8088 40.9409 74.5378 40.0104C74.8443 39.6124 75.1282 39.1974 75.3882 38.7675C74.2622 36.6446 73.6734 34.3376 73.2426 32.0533C72.7696 29.5226 72.5722 26.9889 72.3232 24.4872C72.0832 21.9491 71.9849 19.3969 71.993 16.8443C72.0005 15.568 72.0364 14.2917 72.1021 13.0162L72.2116 11.124C72.2487 10.4922 72.2876 9.84919 72.3525 9.19397C72.4145 8.5261 72.5107 7.86185 72.6408 7.20385C72.7755 6.54122 72.9681 5.83481 73.2382 5.18071C73.5071 4.52105 73.8348 3.8766 74.2852 3.25477C74.7423 2.64631 75.3181 2.00668 76.2556 1.61341C76.7473 1.41589 77.2803 1.34348 77.8068 1.40267C78.3359 1.46203 78.8086 1.65199 79.1993 1.87905C79.5955 2.10686 79.9172 2.37473 80.1984 2.64965C80.4841 2.91938 80.7505 3.23697 80.972 3.55122C81.4224 4.18825 81.7355 4.85273 81.996 5.4931C82.2408 6.13125 82.4642 6.76902 82.6452 7.42127C83.3873 10.0273 83.5442 12.7156 83.4481 15.322C83.3442 17.9354 82.9966 20.4928 82.5614 22.9979C81.7081 28.0289 80.0793 32.9745 77.9055 37.6252C77.6602 38.1575 77.3878 38.6768 77.0893 39.1812C77.648 40.0134 78.3804 40.774 79.1959 41.2233C79.6782 41.4893 80.1346 41.585 80.6102 41.4793C81.0933 41.3702 81.5711 41.0764 82.0089 40.7198C82.6924 40.1444 83.2704 39.4087 83.8024 38.6347C83.7961 38.5917 83.7876 38.5486 83.7809 38.5049C83.3828 35.9771 83.2107 33.4227 83.1836 30.8724C83.1628 28.3228 83.2877 25.7741 83.5576 23.2387L83.9887 19.4692C84.1464 18.1989 84.343 16.9025 84.7455 15.6066C84.9459 14.9599 85.2056 14.3125 85.5573 13.6877C85.7354 13.376 85.9376 13.0711 86.1695 12.7806C86.2845 12.6351 86.4107 12.4949 86.5398 12.3576C86.6946 12.2009 86.863 12.0584 87.0432 11.9317C87.7764 11.4097 88.7911 11.2297 89.6726 11.4983C90.5601 11.7432 91.2843 12.4185 91.6835 13.1108C92.1002 13.8168 92.2909 14.5525 92.4148 15.2356C92.5283 15.9168 92.6003 16.5571 92.6448 17.2212C92.7368 18.5383 92.7123 19.8551 92.6018 21.157C92.3873 23.7645 91.813 26.3111 91.0305 28.7739C90.2448 31.2366 89.2479 33.6269 88.0509 35.9182C87.4359 37.0855 86.6897 38.1788 85.8267 39.1768C85.6864 39.3382 85.5391 39.4944 85.3933 39.6517L85.4757 40.1303C85.5891 40.7318 85.7262 41.3286 85.8864 41.9193C86.2025 43.1051 86.611 44.2715 87.0677 45.4232C87.1004 45.5048 87.1356 45.5864 87.1694 45.668C95.18 41.8503 100.716 33.6798 100.716 24.2152C100.716 11.0973 90.0822 0.462891 76.9643 0.462891" fill="white"/>
</g>
</g>
</g>
</g>
<path id="Vector_11" fill-rule="evenodd" clip-rule="evenodd" d="M4.99034 37.8092C5.00926 37.6445 4.96325 37.5061 4.85195 37.3948C4.74065 37.2835 4.58037 37.1766 4.37186 37.075C4.13053 36.9583 3.88567 36.849 3.63762 36.7474C3.32935 36.6173 3.03249 36.4617 2.75015 36.2821C2.52996 36.1571 2.33515 35.9918 2.17582 35.795C2.02939 35.6138 1.91838 35.4066 1.84859 35.1843C1.78085 34.968 1.75134 34.7415 1.7614 34.515C1.77231 34.2816 1.82654 34.0522 1.92131 33.8386C2.01081 33.6361 2.13941 33.4533 2.29974 33.3007C2.4529 33.1567 2.62688 33.0366 2.81582 32.9445C2.99803 32.8545 3.19106 32.7885 3.39015 32.7478C3.56713 32.7109 3.74733 32.6915 3.92812 32.69H4.10287C4.61673 32.7189 5.0868 32.8451 5.51347 33.068C5.93395 33.286 6.30531 33.5877 6.60462 33.9548L6.64803 33.9989L6.60462 34.0568C6.50742 34.1929 6.40094 34.2942 6.28444 34.3621C6.17576 34.4308 6.04939 34.4663 5.92084 34.4642C5.78505 34.4642 5.65408 34.4374 5.52831 34.3844C5.40217 34.331 5.26637 34.2753 5.12093 34.2167C4.93654 34.1395 4.76476 34.0742 4.60448 34.0201C4.44743 33.9676 4.28294 33.9407 4.11734 33.9407C3.90401 33.9407 3.7441 33.9867 3.63762 34.0787C3.53077 34.1711 3.4677 34.2801 3.4484 34.4059C3.42874 34.5903 3.48699 34.7428 3.62278 34.8641C3.75857 34.9854 3.95743 35.0993 4.21937 35.2055C4.51989 35.3316 4.83971 35.4704 5.17918 35.6202C5.51829 35.7709 5.81918 35.9549 6.08075 36.1731C6.3378 36.385 6.54194 36.6539 6.67697 36.9585C6.81276 37.2638 6.82723 37.6349 6.72075 38.0712C6.67252 38.2455 6.58978 38.4273 6.47365 38.6162C6.35716 38.8054 6.19465 38.9776 5.98614 39.1326C5.77763 39.2877 5.52608 39.4165 5.23001 39.5181C4.93432 39.6202 4.58816 39.671 4.19006 39.671C4.11252 39.671 4.04945 39.6662 4.00084 39.6561C3.53559 39.6368 3.07776 39.5159 2.62661 39.2925C2.17582 39.0699 1.79999 38.7742 1.49946 38.4058L1.45605 38.362L1.49946 38.3038C1.5477 38.2259 1.60149 38.1635 1.65937 38.1146C1.71762 38.0663 1.77105 38.0226 1.81928 37.984C1.92729 37.9278 2.04702 37.8978 2.16877 37.8964C2.30419 37.8964 2.43516 37.9235 2.56131 37.9766C2.68745 38.03 2.82287 38.0856 2.96831 38.1435C3.1041 38.2118 3.25696 38.2697 3.42651 38.3186C3.59607 38.3669 3.78306 38.401 3.98674 38.4199C4.3355 38.4199 4.58519 38.3524 4.73545 38.2166C4.88571 38.0808 4.97105 37.945 4.99034 37.8092ZM8.5966 35.802C8.87088 35.6321 9.17045 35.5069 9.48407 35.431C9.82179 35.3479 10.1684 35.3064 10.5162 35.3075C11.0208 35.3075 11.5005 35.3802 11.9565 35.5264C11.9272 35.2251 11.8641 34.9587 11.7673 34.7261C11.6411 34.4256 11.4519 34.2074 11.2004 34.0716C11.1012 34.022 10.9961 33.9853 10.8876 33.9625C10.7607 33.9367 10.6313 33.9245 10.5018 33.9262H10.3422C10.2048 33.9362 10.0685 33.9579 9.93485 33.9911C9.79734 34.0261 9.66153 34.0675 9.52785 34.115C9.39408 34.163 9.25799 34.2042 9.1201 34.2386C8.99185 34.2716 8.86 34.2887 8.72757 34.2894C8.59215 34.2894 8.46118 34.2605 8.33503 34.2022C8.21891 34.1347 8.11725 34.0227 8.02969 33.8676L8.00075 33.8097L8.02969 33.7659C8.32197 33.4547 8.66975 33.2008 9.05517 33.0172C9.44771 32.828 9.87697 32.7189 10.3422 32.6896C10.3828 32.6808 10.4242 32.676 10.4658 32.6751H10.5893C11.0353 32.6751 11.4427 32.7553 11.8111 32.9152C12.1717 33.0698 12.498 33.2947 12.7709 33.5767C13.3237 34.1781 13.6094 34.9684 13.6294 35.9475V36.064C13.6294 37.0724 13.3723 37.892 12.8584 38.5219C12.6078 38.831 12.299 39.0879 11.9495 39.2781C11.5951 39.4721 11.2 39.5934 10.7641 39.6417C10.7063 39.6514 10.6479 39.6564 10.5893 39.6565H10.4001C10.1968 39.6565 9.98345 39.6391 9.76047 39.6053C9.53432 39.5703 9.31408 39.5043 9.106 39.409C8.8873 39.3244 8.68169 39.2093 8.49531 39.067C8.30445 38.9191 8.14597 38.7336 8.02969 38.5219C7.84529 38.2407 7.74846 37.8964 7.73881 37.4894V37.4019C7.73881 37.0238 7.81636 36.7092 7.97144 36.4565C8.10723 36.2046 8.31574 35.9864 8.59697 35.802M11.6078 36.5003C11.4816 36.4806 11.3384 36.4617 11.1785 36.442C11.0168 36.4225 10.8542 36.4127 10.6913 36.4127C10.5556 36.4127 10.4242 36.4201 10.2988 36.435C10.1796 36.4477 10.0623 36.4745 9.94932 36.5148C9.70704 36.5927 9.52265 36.7136 9.39651 36.8784C9.3477 36.9374 9.30851 37.0037 9.28038 37.075C9.25144 37.1477 9.23215 37.2275 9.2225 37.3147C9.21086 37.3573 9.20585 37.4015 9.20766 37.4456C9.20766 37.5425 9.2225 37.6467 9.25144 37.7584C9.28038 37.8697 9.33863 37.9743 9.42582 38.0708C9.50373 38.168 9.61726 38.2504 9.76789 38.3183C9.91778 38.3862 10.1192 38.4199 10.3715 38.4199C10.4487 38.4199 10.507 38.4151 10.5459 38.4054C10.8167 38.3958 11.0549 38.3183 11.2583 38.1728C11.3555 38.1146 11.4378 38.0445 11.5057 37.9617C11.5736 37.8793 11.6315 37.7899 11.6801 37.6927C11.7837 37.517 11.8574 37.3253 11.8983 37.1254C11.9352 36.9485 11.9547 36.7683 11.9565 36.5875C11.9469 36.5875 11.9394 36.5852 11.9342 36.5804C11.9298 36.5756 11.9227 36.573 11.9131 36.573C11.8697 36.5624 11.826 36.5527 11.7821 36.5441C11.7234 36.532 11.6652 36.5174 11.6078 36.5003ZM16.2321 33.0243C16.6587 32.8016 17.1485 32.6896 17.7013 32.6896C18.1407 32.6861 18.5755 32.7806 18.9739 32.966C19.3601 33.1454 19.7082 33.3973 19.9994 33.708C20.3007 34.0295 20.5397 34.4042 20.7043 34.8129C20.8742 35.2299 20.9592 35.6855 20.9592 36.1801C20.9592 36.6554 20.8813 37.1039 20.7265 37.5258C20.5794 37.934 20.3574 38.3112 20.0721 38.6381C19.7847 38.9529 19.4358 39.2055 19.047 39.3801C18.6444 39.5641 18.1959 39.6561 17.7017 39.6561C17.2622 39.6597 16.8275 39.5654 16.4291 39.3801C16.0429 39.2007 15.6948 38.9488 15.4036 38.6381C15.1068 38.3185 14.8725 37.9461 14.7128 37.5402C14.5428 37.1184 14.4583 36.665 14.4583 36.1801V31.0171C14.4583 30.4357 14.6156 30.0209 14.9309 29.7734C15.2456 29.5267 15.7041 29.4028 16.3052 29.4028C16.2921 29.4896 16.2824 29.5768 16.2762 29.6643C16.2666 29.7719 16.2592 29.9166 16.254 30.101C16.2491 30.2851 16.2465 30.5229 16.2465 30.8137V31.2716C16.2465 31.4897 16.2447 31.7205 16.2399 31.9624C16.235 32.2047 16.2324 32.4277 16.2324 32.6317L16.2321 33.0243ZM17.7013 38.4054C17.8274 38.4054 17.9755 38.3765 18.145 38.3183C18.3146 38.26 18.4771 38.1513 18.6322 37.991C18.7873 37.8315 18.9179 37.6033 19.0251 37.3072C19.1316 37.0115 19.1846 36.6313 19.1846 36.1656C19.1846 35.7 19.1316 35.3201 19.0251 35.024C18.9182 34.7283 18.7873 34.5009 18.6318 34.3406C18.4771 34.1803 18.3146 34.0716 18.145 34.013C17.9755 33.9548 17.8274 33.9262 17.7017 33.9262C17.5755 33.9262 17.4271 33.9548 17.2579 34.013C17.088 34.0716 16.9255 34.1803 16.7708 34.3406C16.615 34.5005 16.4844 34.7283 16.3775 35.024C16.271 35.3201 16.218 35.7 16.218 36.1656C16.218 36.6313 16.271 37.0115 16.3775 37.3072C16.4844 37.6033 16.615 37.8311 16.7708 37.991C16.9255 38.1509 17.088 38.26 17.2579 38.3183C17.4275 38.3765 17.5752 38.4054 17.7013 38.4054ZM23.5336 33.0243C23.9603 32.8016 24.45 32.6896 25.0021 32.6896C25.4577 32.6896 25.8822 32.7824 26.2747 32.966C26.6609 33.1454 27.009 33.3973 27.3002 33.708C27.6016 34.0295 27.8408 34.4042 28.0055 34.8129C28.175 35.2299 28.26 35.6855 28.26 36.1801C28.26 36.6554 28.1825 37.1039 28.0274 37.5258C27.8802 37.934 27.6582 38.3112 27.3729 38.6381C27.0855 38.9529 26.7366 39.2054 26.3478 39.3801C25.9452 39.5641 25.4967 39.6561 25.0021 39.6561C24.5627 39.6597 24.128 39.5654 23.7295 39.3801C23.3435 39.2006 22.9956 38.9487 22.7044 38.6381C22.4076 38.3185 22.1733 37.9461 22.0136 37.5402C21.8437 37.1184 21.7591 36.665 21.7591 36.1801V31.0171C21.7591 30.4357 21.9164 30.0209 22.2318 29.7734C22.5464 29.5267 23.0049 29.4028 23.606 29.4028C23.5929 29.4896 23.5833 29.5768 23.5771 29.6643C23.5674 29.7719 23.56 29.9166 23.5552 30.101C23.55 30.2851 23.5477 30.5229 23.5477 30.8137V31.2716C23.5477 31.4897 23.5455 31.7205 23.5407 31.9624C23.5358 32.1855 23.5334 32.4086 23.5333 32.6317L23.5336 33.0243ZM25.0021 38.4054C25.1283 38.4054 25.2767 38.3765 25.4459 38.3183C25.6154 38.26 25.7779 38.1513 25.933 37.991C26.0881 37.8315 26.219 37.6033 26.3263 37.3072C26.4324 37.0115 26.4858 36.6313 26.4858 36.1656C26.4858 35.7 26.4324 35.3201 26.3263 35.024C26.219 34.7283 26.0881 34.5009 25.933 34.3406C25.7779 34.1803 25.6154 34.0716 25.4459 34.013C25.2763 33.9548 25.1283 33.9262 25.0021 33.9262C24.8763 33.9262 24.7283 33.9548 24.5588 34.013C24.3888 34.0716 24.2263 34.1803 24.0716 34.3406C23.9162 34.5005 23.7852 34.7283 23.6787 35.024C23.5719 35.3201 23.5192 35.7 23.5192 36.1656C23.5192 36.6313 23.5719 37.0115 23.6787 37.3072C23.7852 37.6033 23.9162 37.8311 24.072 37.991C24.2263 38.1509 24.3888 38.26 24.5588 38.3183C24.7283 38.3765 24.8763 38.4054 25.0021 38.4054ZM30.1362 35.802C30.4104 35.6322 30.7098 35.507 31.0233 35.431C31.3612 35.3478 31.7079 35.3063 32.0558 35.3075C32.5601 35.3075 33.0401 35.3802 33.4958 35.5264C33.4668 35.2251 33.4037 34.9587 33.3069 34.7261C33.1808 34.4256 32.9915 34.2074 32.7396 34.0716C32.6405 34.022 32.5354 33.9853 32.4269 33.9625C32.3 33.9367 32.1708 33.9245 32.0414 33.9262H31.8815C31.7442 33.9362 31.608 33.9579 31.4745 33.9911C31.3383 34.0256 31.2029 34.0668 31.0671 34.115C30.9334 34.163 30.7975 34.2042 30.6597 34.2386C30.5315 34.2716 30.3996 34.2887 30.2672 34.2894C30.1314 34.2894 30.0004 34.2605 29.8743 34.2022C29.7582 34.1347 29.6565 34.0227 29.5689 33.8676L29.54 33.8097L29.5689 33.7659C29.8612 33.4547 30.209 33.2008 30.5944 33.0172C30.987 32.828 31.4162 32.7189 31.8815 32.6896C31.9221 32.6808 31.9635 32.676 32.005 32.6751H32.1286C32.5745 32.6751 32.9819 32.7553 33.3507 32.9152C33.7112 33.0699 34.0373 33.2947 34.3101 33.5767C34.8629 34.1781 35.149 34.9684 35.1687 35.9475V36.064C35.1687 37.0724 34.9115 37.892 34.3977 38.5219C34.147 38.831 33.8382 39.0879 33.4887 39.2781C33.1344 39.4721 32.7396 39.5934 32.3033 39.6417C32.2456 39.6514 32.1871 39.6564 32.1286 39.6565H31.9397C31.7254 39.6555 31.5115 39.6384 31.2997 39.6053C31.0736 39.5703 30.8533 39.5042 30.6452 39.409C30.4265 39.3244 30.2209 39.2093 30.0346 39.067C29.8437 38.9191 29.6852 38.7336 29.5689 38.5219C29.3849 38.2407 29.2877 37.8964 29.2781 37.4894V37.4019C29.2781 37.0238 29.3556 36.7092 29.5107 36.4565C29.6465 36.2046 29.855 35.9864 30.1362 35.802ZM33.147 36.5003C33.0209 36.4806 32.8776 36.4617 32.7177 36.442C32.5561 36.4225 32.3934 36.4127 32.2306 36.4127C32.0948 36.4127 31.9638 36.4201 31.8381 36.435C31.7189 36.4477 31.6018 36.4745 31.4889 36.5148C31.2463 36.5927 31.0619 36.7136 30.9361 36.8784C30.8872 36.9374 30.8479 37.0037 30.8196 37.075C30.7907 37.1477 30.7714 37.2275 30.7617 37.3147C30.7501 37.3573 30.7451 37.4015 30.7469 37.4456C30.7469 37.5425 30.7617 37.6467 30.7907 37.7584C30.8196 37.8697 30.8779 37.9743 30.9654 38.0708C31.043 38.168 31.1565 38.2504 31.3071 38.3183C31.457 38.3862 31.6585 38.4199 31.9108 38.4199C31.9879 38.4199 32.0462 38.4151 32.0852 38.4054C32.3564 38.3958 32.5942 38.3183 32.7979 38.1728C32.8947 38.1146 32.9771 38.0445 33.045 37.9617C33.1129 37.8793 33.1707 37.7899 33.2197 37.6927C33.3231 37.517 33.3967 37.3253 33.4375 37.1254C33.4744 36.9485 33.494 36.7683 33.4958 36.5875C33.4861 36.5875 33.4787 36.5852 33.4742 36.5804C33.4682 36.5752 33.4603 36.5725 33.4523 36.573C33.4089 36.5624 33.3652 36.5527 33.3214 36.5441C33.2626 36.532 33.2045 36.5174 33.147 36.5003ZM36.2594 36.0061C36.2594 35.3565 36.3537 34.8255 36.5425 34.4133C36.7317 34.0015 36.9766 33.6787 37.2771 33.4461C37.5744 33.215 37.9198 33.0536 38.2878 32.9738C38.6532 32.8922 39.0264 32.8506 39.4008 32.8499H40.1132C40.1614 33.0536 40.1714 33.2428 40.1428 33.4172C40.1228 33.5626 40.0575 33.7028 39.9462 33.8386C39.8349 33.9748 39.6524 34.0572 39.4008 34.0861C39.2351 34.1059 39.0717 34.1425 38.9133 34.1952C38.7498 34.2508 38.6024 34.3457 38.484 34.4716C38.3583 34.6025 38.254 34.7892 38.1716 35.0314C38.0889 35.2737 38.0481 35.5987 38.0481 36.0061V38.1146C38.0481 38.4058 38.0503 38.6407 38.0555 38.8202C38.06 38.9998 38.0674 39.1427 38.077 39.2491C38.0867 39.3656 38.0963 39.4528 38.106 39.5111C37.5146 39.5111 37.059 39.3875 36.7392 39.1401C36.419 38.893 36.2591 38.4785 36.2591 37.8964L36.2594 36.0061ZM5.35245 16.1687C5.31386 16.1932 5.27083 16.2132 5.23558 16.2407C4.92393 16.4855 4.75586 16.9367 4.75586 17.5132L4.76068 17.5236C4.7592 17.5492 4.75734 17.5745 4.75734 17.5975V21.2653C4.75734 23.1798 3.91922 24.3206 2.24298 24.6868C1.84673 24.7733 1.57515 25.1409 1.57515 25.5468V26.6584L1.98772 26.6098C5.01631 26.3185 6.53079 24.5451 6.53079 21.2894V18.4875L6.5319 18.4111C6.53673 18.1711 6.53932 17.9425 6.53932 17.7262V17.2721C6.53932 16.9834 6.54155 16.7482 6.54674 16.5653C6.5512 16.3828 6.55825 16.2388 6.56789 16.1327C6.57754 16.0173 6.58718 15.9309 6.59683 15.873C6.18686 15.873 5.84887 15.9353 5.57357 16.0518C5.49121 16.0716 5.41515 16.1118 5.35245 16.1687ZM16.9403 11.3095C17.3778 11.3095 17.7095 11.0424 17.9365 10.5081C18.1955 11.075 18.5353 11.3663 18.9568 11.3822C19.3456 11.3822 19.645 11.2527 19.8554 10.9938C20.0335 10.7675 20.1225 10.4918 20.1225 10.1679V8.75879H19.4184L19.4425 9.97312C19.4425 10.4269 19.2562 10.6536 18.8837 10.6536C18.4789 10.6536 18.2764 10.3055 18.2764 9.60878V8.75916H17.5722V9.60878C17.5722 10.3055 17.3778 10.6536 16.9889 10.6536C16.6161 10.6862 16.4302 10.4514 16.4302 9.949V8.75879H15.7498V10.1679C15.7498 10.4758 15.8384 10.743 16.0169 10.9693C16.2273 11.229 16.5352 11.3422 16.9403 11.3095ZM14.9116 23.9374C14.5228 23.9374 14.1908 24.0746 13.9155 24.3503C13.7822 24.4793 13.6767 24.6342 13.6057 24.8056C13.5347 24.9769 13.4996 25.161 13.5025 25.3465C13.5025 25.7349 13.6398 26.067 13.9155 26.3427C14.0445 26.4758 14.1995 26.5811 14.3708 26.6522C14.5422 26.7232 14.7262 26.7584 14.9116 26.7556C15.3005 26.7556 15.6321 26.6176 15.9078 26.3427C16.1827 26.067 16.3207 25.7349 16.3207 25.3465C16.3207 24.9577 16.1872 24.6256 15.9201 24.3503C15.6529 24.0746 15.3164 23.9374 14.9116 23.9374ZM39.4479 17.5481C38.6217 15.6374 37.1721 14.5689 35.0993 14.3414C34.079 14.2283 32.8966 14.5277 31.5524 15.2404C30.0839 16.031 28.8403 17.2235 27.8226 18.8181C27.8151 18.8296 27.8066 18.8415 27.7981 18.8519C27.5226 19.1999 27.2312 19.5351 26.9247 19.8562C26.6798 20.1085 26.2532 19.9363 26.2513 19.5854L26.2343 16.5542C26.2343 16.5486 26.2317 16.5468 26.2313 16.5412C26.2343 16.4959 26.2372 16.4488 26.2409 16.4124C26.2513 16.2974 26.2621 16.2106 26.2728 16.1527C25.6087 16.1527 25.1034 16.2755 24.7561 16.5204C24.4081 16.7657 24.2211 17.2168 24.2211 17.7934L24.2241 17.7989C24.2226 17.8119 24.22 17.8238 24.22 17.839L24.2645 20.7307C24.2645 21.2004 24.0616 21.4271 23.6572 21.4108L22.1023 21.3866V21.3967C19.8858 21.2586 18.7743 20.0833 18.7743 17.8639V16.8128C18.7791 16.6473 18.7854 16.5115 18.795 16.4124C18.8014 16.3255 18.8113 16.2389 18.8247 16.1527C18.2144 16.1527 17.7495 16.2755 17.4297 16.5204C17.1106 16.7657 16.9511 17.1756 16.9507 17.7511L16.9504 17.7514C16.9504 19.9887 15.8151 21.279 13.5456 21.4022C13.5252 21.4033 13.5047 21.4033 13.4843 21.4022C11.2145 21.279 10.0777 20.1011 10.0777 17.8639V13.6514L10.0821 13.3568C10.087 13.1167 10.0896 12.8882 10.0896 12.6719V12.2174C10.0896 11.9291 10.0918 11.6935 10.0966 11.511C10.1014 11.3284 10.1085 11.1845 10.1181 11.0784C10.1278 10.9634 10.1374 10.8765 10.1471 10.8187C9.55085 10.8187 9.09636 10.9411 8.78433 11.1863C8.47157 11.4316 8.31537 11.843 8.31537 12.4196V13.8925C8.30795 13.9482 8.30424 13.9953 8.30424 14.0272V17.8883C8.30424 21.3276 9.99161 23.1093 13.3571 23.2443L13.3567 23.2569C13.4046 23.2569 13.448 23.251 13.4951 23.2499C13.5552 23.2514 13.612 23.2566 13.6728 23.2573L13.6724 23.2406C15.4318 23.1605 16.737 22.6492 17.5785 21.6972C17.6155 21.6548 17.6613 21.6209 17.7126 21.5978C17.7639 21.5747 17.8197 21.563 17.8759 21.5634C17.9322 21.5638 17.9878 21.5764 18.0388 21.6002C18.0897 21.6241 18.135 21.6587 18.1714 21.7016C19.0488 22.7097 20.4483 23.2284 22.3698 23.2569L22.3694 23.2328H39.8776C40.0961 23.2328 40.2742 23.0532 40.2716 22.8351C40.2434 20.5366 39.9685 18.7743 39.4479 17.5481ZM37.7735 21.4119L29.0989 21.4352C28.2567 21.4352 27.8919 21.403 28.0058 21.338C28.1513 21.2572 28.8555 20.4391 30.1191 18.8845C31.3999 17.3151 32.8706 16.3791 34.532 16.0763C34.5698 16.0696 34.6095 16.0674 34.6481 16.07C36.219 16.1854 37.2846 17.0755 37.8444 18.7387C38.0559 19.4147 38.1627 20.1764 38.1661 21.0234C38.1652 21.1269 38.1234 21.2258 38.0499 21.2986C37.9763 21.3713 37.877 21.4121 37.7735 21.4119Z" fill="white"/>
</g>
</svg>
