<svg width="96" height="46" viewBox="0 0 96 46" fill="none" xmlns="http://www.w3.org/2000/svg">
<g id="logo-ar 2" clip-path="url(#clip0_676_27381)">
<g id="Group">
<g id="Group_2">
<g id="Mask group">
<mask id="mask0_676_27381" style="mask-type:luminance" maskUnits="userSpaceOnUse" x="50" y="0" width="46" height="46">
<g id="Group_3">
<path id="Vector" d="M50.2031 23.2057C50.2031 34.8544 58.9526 44.4594 70.239 45.8062H75.6915C86.1139 44.5625 94.3731 36.2766 95.5763 25.8418V20.5692C94.27 9.2398 84.6447 0.443359 72.9651 0.443359C60.3941 0.443359 50.2031 10.6343 50.2031 23.2057Z" fill="white"/>
</g>
</mask>
<g mask="url(#mask0_676_27381)">
<path id="Vector_2" fill-rule="evenodd" clip-rule="evenodd" d="M72.3607 35.3891C73.2859 33.2095 73.9223 30.9176 74.4322 28.6058C74.9431 26.2919 75.319 23.9495 75.7058 21.5989C76.0831 19.2408 76.4301 16.9016 76.5186 14.5802C76.6135 12.2627 76.4553 9.96438 75.8964 7.79692C75.6066 6.7267 75.2372 5.60847 74.722 4.8547C74.5984 4.66867 74.4558 4.4959 74.2967 4.33914C74.1396 4.17736 73.9792 4.0451 73.8363 3.96119C73.6923 3.87336 73.5718 3.83034 73.479 3.81683C73.3817 3.80235 73.2823 3.813 73.1903 3.84776C72.9591 3.92243 72.6224 4.1987 72.338 4.57061C72.0493 4.94394 71.7943 5.40083 71.5842 5.87905C71.1639 6.82483 70.952 7.91816 70.8055 9.06234C70.7327 9.63407 70.6804 10.2215 70.6292 10.8188L70.4752 12.6165C70.3812 13.8029 70.3146 14.9914 70.2754 16.1809C70.1975 18.5607 70.2384 20.9454 70.3767 23.3255C70.5247 25.7375 70.6292 28.1343 70.9165 30.4814C71.063 31.6547 71.2685 32.8159 71.5743 33.9427C71.7418 34.5653 71.9454 35.1777 72.184 35.7766C72.2431 35.6476 72.3063 35.5199 72.3607 35.3891Z" fill="black"/>
</g>
</g>
</g>
<g id="Group_4">
<g id="Mask group_2">
<mask id="mask1_676_27381" style="mask-type:luminance" maskUnits="userSpaceOnUse" x="50" y="0" width="46" height="46">
<g id="Group_5">
<path id="Vector_3" d="M50.2031 23.2057C50.2031 34.8544 58.9526 44.4594 70.239 45.8062H75.6915C86.1139 44.5625 94.3731 36.2766 95.5763 25.8418V20.5692C94.27 9.2398 84.6447 0.443359 72.9651 0.443359C60.3941 0.443359 50.2031 10.6343 50.2031 23.2057Z" fill="white"/>
</g>
</mask>
<g mask="url(#mask1_676_27381)">
<path id="Vector_4" fill-rule="evenodd" clip-rule="evenodd" d="M65.95 37.4572C66.1765 36.2778 66.3902 35.097 66.5587 33.917C66.8809 31.5575 67.0281 29.181 66.7127 26.8613C66.5484 25.7153 66.318 24.5271 65.949 23.4622C65.7644 22.9289 65.5447 22.4208 65.2663 21.9749C65.1187 21.7406 64.995 21.5824 64.8371 21.438C64.6846 21.2979 64.5235 21.2016 64.3749 21.1536C64.2238 21.1081 64.0677 21.0917 63.9678 21.1251C63.8611 21.1511 63.7559 21.2087 63.63 21.321C63.3765 21.5418 63.1184 21.9657 62.9278 22.4289C62.7312 22.9108 62.5881 23.4128 62.5011 23.9258C62.3998 24.482 62.3247 25.0426 62.2761 25.6058C62.1828 26.7571 62.1504 27.9125 62.179 29.0672C62.1918 30.2352 62.2334 31.4476 62.2903 32.6138C62.3475 33.7815 62.4332 34.9203 62.6103 36.0201C62.8016 37.1045 63.0633 38.2092 63.5038 39.1006C63.7211 39.5489 63.9845 39.9472 64.2981 40.248C64.4581 40.4009 64.6146 40.5253 64.8108 40.6369C64.8595 40.6643 64.9093 40.6882 64.9584 40.7141C65.3922 39.6489 65.7388 38.569 65.95 37.4572Z" fill="black"/>
</g>
</g>
</g>
<g id="Group_6">
<g id="Mask group_3">
<mask id="mask2_676_27381" style="mask-type:luminance" maskUnits="userSpaceOnUse" x="50" y="0" width="46" height="46">
<g id="Group_7">
<path id="Vector_5" d="M50.2031 23.2057C50.2031 34.8544 58.9526 44.4594 70.239 45.8062H75.6915C86.1139 44.5625 94.3731 36.2766 95.5763 25.8418V20.5692C94.27 9.2398 84.6447 0.443359 72.9651 0.443359C60.3941 0.443359 50.2031 10.6343 50.2031 23.2057Z" fill="white"/>
</g>
</mask>
<g mask="url(#mask2_676_27381)">
<path id="Vector_6" fill-rule="evenodd" clip-rule="evenodd" d="M81.4927 44.0003C81.0244 42.8682 80.5988 41.7102 80.2621 40.519C80.1304 40.0513 80.0122 39.5799 79.9076 39.1053C79.4959 39.4655 79.0631 39.8083 78.591 40.1169C78.0352 40.4785 77.4084 40.7871 76.6834 40.923C76.3222 40.9834 75.9268 40.9866 75.5595 40.9069C75.2064 40.8359 74.8665 40.7104 74.5519 40.535C73.9403 40.2065 73.4397 39.7724 72.991 39.3059C72.783 39.0899 72.5857 38.864 72.3997 38.6289C72.2397 38.8611 72.0772 39.0911 71.9076 39.3166C71.5226 39.8329 71.0986 40.3191 70.6393 40.7708C70.1728 41.2255 69.6765 41.6685 69.0962 42.033C68.5184 42.3946 67.8763 42.7103 67.157 42.8757C66.5078 43.0321 65.8052 43.0442 65.1314 42.9212C64.9152 43.3923 64.6941 43.8598 64.4736 44.3292C67.173 45.4146 70.0559 45.9709 72.9654 45.9676C75.93 45.9709 78.8665 45.3933 81.6089 44.2673C81.5705 44.1781 81.5303 44.0895 81.4927 44.0003Z" fill="black"/>
</g>
</g>
</g>
<g id="Group_8">
<g id="Mask group_4">
<mask id="mask3_676_27381" style="mask-type:luminance" maskUnits="userSpaceOnUse" x="50" y="0" width="46" height="46">
<g id="Group_9">
<path id="Vector_7" d="M50.2031 23.2057C50.2031 34.8544 58.9526 44.4594 70.239 45.8062H75.6915C86.1139 44.5625 94.3731 36.2766 95.5763 25.8418V20.5692C94.27 9.2398 84.6447 0.443359 72.9651 0.443359C60.3941 0.443359 50.2031 10.6343 50.2031 23.2057Z" fill="white"/>
</g>
</mask>
<g mask="url(#mask3_676_27381)">
<path id="Vector_8" fill-rule="evenodd" clip-rule="evenodd" d="M85.8918 20.0841C86.0106 18.9296 86.0518 17.7709 85.9914 16.6246C85.9644 16.0572 85.9093 15.4915 85.8264 14.9296C85.7425 14.3984 85.6084 13.9163 85.3972 13.5476C85.1803 13.1689 84.9208 12.9456 84.6033 12.8393C84.2915 12.7362 83.9562 12.7807 83.666 12.9698C83.591 13.0207 83.5202 13.0774 83.4541 13.1394C83.3695 13.2255 83.2852 13.3136 83.2063 13.4086C83.0442 13.6036 82.8972 13.8106 82.7665 14.0279C82.5002 14.4749 82.2811 14.9737 82.1037 15.5024C81.7464 16.5599 81.5348 17.709 81.3642 18.8802L80.8842 22.4532C80.5844 24.8191 80.42 27.2002 80.3917 29.5849C80.3745 31.4677 80.4642 33.35 80.6602 35.2226C81.0153 34.629 81.3579 34.028 81.6877 33.4199C83.8619 29.2631 85.3912 24.7039 85.8918 20.0841Z" fill="black"/>
</g>
</g>
</g>
<g id="Group_10">
<g id="Mask group_5">
<mask id="mask4_676_27381" style="mask-type:luminance" maskUnits="userSpaceOnUse" x="50" y="0" width="46" height="46">
<g id="Group_11">
<path id="Vector_9" d="M50.2031 23.2057C50.2031 34.8544 58.9526 44.4594 70.239 45.8062H75.6915C86.1139 44.5625 94.3731 36.2766 95.5763 25.8418V20.5692C94.27 9.2398 84.6447 0.443359 72.9651 0.443359C60.3941 0.443359 50.2031 10.6343 50.2031 23.2057Z" fill="white"/>
</g>
</mask>
<g mask="url(#mask4_676_27381)">
<path id="Vector_10" fill-rule="evenodd" clip-rule="evenodd" d="M72.9654 0.443715C60.3941 0.443715 50.2031 10.6347 50.2031 23.206C50.2031 32.4085 55.6648 40.3349 63.5229 43.9225C63.7224 43.4972 63.9229 43.0702 64.1196 42.6421C64.0354 42.609 63.9518 42.5744 63.8689 42.5383C63.5127 42.3812 63.1773 42.1806 62.8705 41.941C62.2572 41.4652 61.7889 40.8778 61.4152 40.277C61.0429 39.6754 60.7645 39.0375 60.5388 38.4217C60.3062 37.8005 60.1356 37.1637 59.9958 36.5287C59.7125 35.2576 59.5887 33.9851 59.5329 32.7435C59.4871 31.5136 59.4745 30.2826 59.4952 29.0521C59.5382 27.8126 59.6076 26.5507 59.8234 25.2903C59.9266 24.6561 60.0613 24.0274 60.2269 23.4066C60.4058 22.7415 60.6579 22.0982 60.9786 21.4887C61.3164 20.8754 61.7167 20.2435 62.4282 19.7266C62.7802 19.4741 63.2428 19.2672 63.737 19.2259C64.2376 19.1762 64.6934 19.2899 65.0973 19.4723C65.9116 19.8542 66.4165 20.5507 66.7176 21.1637C67.0121 21.7557 67.2449 22.3765 67.4124 23.0162C67.7324 24.2656 67.9151 25.4652 68.0396 26.7132C68.2771 29.1968 68.0758 31.68 67.6769 34.0857C67.4828 35.2917 67.2492 36.4832 67.0013 37.6697C66.7603 38.832 66.3781 39.9605 65.9439 41.0439C66.671 41.1513 67.4597 40.9763 68.201 40.5511C69.1233 40.0423 69.9418 39.2348 70.6405 38.3431C70.9342 37.9616 71.2063 37.564 71.4554 37.152C70.3763 35.1175 69.812 32.9067 69.3992 30.7175C68.9459 28.2922 68.7567 25.8642 68.5181 23.4666C68.2881 21.0343 68.1939 18.5884 68.2017 16.1422C68.2088 14.9191 68.2433 13.696 68.3062 12.4736L68.4111 10.6602C68.4467 10.0547 68.484 9.43856 68.5462 8.81065C68.6056 8.1706 68.6978 7.53403 68.8225 6.90345C68.9516 6.26843 69.1361 5.59145 69.3949 4.9646C69.6527 4.33243 69.9667 3.71483 70.3983 3.11891C70.8364 2.5358 71.3882 1.92283 72.2867 1.54594C72.7579 1.35665 73.2687 1.28726 73.7733 1.34398C74.2803 1.40087 74.7333 1.58291 75.1077 1.80051C75.4874 2.01883 75.7957 2.27554 76.0652 2.539C76.3389 2.79749 76.5942 3.10185 76.8065 3.403C77.2381 4.01349 77.5382 4.65029 77.7878 5.26398C78.0225 5.87554 78.2365 6.48674 78.4101 7.1118C79.1212 9.60923 79.2716 12.1856 79.1795 14.6834C79.0799 17.1879 78.7468 19.6387 78.3297 22.0394C77.5119 26.8608 75.951 31.6003 73.8678 36.0572C73.6328 36.5673 73.3717 37.0651 73.0856 37.5484C73.6211 38.3459 74.3229 39.0748 75.1045 39.5054C75.5667 39.7603 76.004 39.8521 76.4598 39.7507C76.9228 39.6462 77.3807 39.3646 77.8003 39.0229C78.4552 38.4715 79.0092 37.7664 79.519 37.0247C79.513 36.9834 79.5048 36.9422 79.4984 36.9002C79.1169 34.4779 78.9519 32.0299 78.926 29.5858C78.9061 27.1424 79.0257 24.6999 79.2844 22.2702L79.6975 18.6578C79.8486 17.4403 80.0371 16.198 80.4229 14.9561C80.6149 14.3363 80.8637 13.7159 81.2008 13.1171C81.3715 12.8185 81.5653 12.5262 81.7875 12.2478C81.8977 12.1084 82.0186 11.974 82.1423 11.8425C82.2907 11.6923 82.4521 11.5557 82.6248 11.4343C83.3274 10.934 84.2998 10.7616 85.1446 11.019C85.9951 11.2537 86.6892 11.9008 87.0717 12.5642C87.471 13.2409 87.6538 13.9459 87.7725 14.6005C87.8813 15.2533 87.9503 15.867 87.993 16.5034C88.0812 17.7657 88.0577 19.0275 87.9517 20.2752C87.7462 22.774 87.1958 25.2146 86.446 27.5747C85.6929 29.9348 84.7376 32.2255 83.5905 34.4213C83.0011 35.54 82.286 36.5877 81.4589 37.5442C81.3245 37.6988 81.1834 37.8485 81.0437 37.9993L81.1226 38.4579C81.2313 39.0344 81.3626 39.6063 81.5162 40.1724C81.8191 41.3088 82.2106 42.4266 82.6483 43.5303C82.6796 43.6085 82.7133 43.6867 82.7457 43.765C90.4225 40.1063 95.7281 32.2763 95.7281 23.206C95.7281 10.6347 85.5372 0.443359 72.9658 0.443359" fill="black"/>
</g>
</g>
</g>
</g>
<path id="Vector_11" fill-rule="evenodd" clip-rule="evenodd" d="M3.99054 36.2336C4.00867 36.0757 3.96458 35.9431 3.85792 35.8364C3.75125 35.7297 3.59765 35.6273 3.39783 35.5299C3.16655 35.4181 2.93189 35.3134 2.69418 35.216C2.39875 35.0913 2.11427 34.9422 1.84369 34.7701C1.63267 34.6502 1.44598 34.4919 1.29329 34.3032C1.15296 34.1296 1.04658 33.931 0.979694 33.718C0.914777 33.5107 0.886502 33.2936 0.896138 33.0766C0.906597 32.8529 0.958562 32.6331 1.04938 32.4284C1.13515 32.2343 1.2584 32.0591 1.41205 31.9128C1.55883 31.7749 1.72556 31.6598 1.90663 31.5715C2.08124 31.4853 2.26623 31.422 2.45703 31.3831C2.62663 31.3476 2.79932 31.3291 2.97258 31.3276H3.14005C3.63249 31.3553 4.08298 31.4762 4.49187 31.6899C4.89483 31.8988 5.25071 32.188 5.53756 32.5397L5.57916 32.582L5.53756 32.6375C5.4444 32.768 5.34236 32.865 5.23071 32.9301C5.12657 32.9959 5.00546 33.0299 4.88227 33.0279C4.75214 33.0279 4.62663 33.0023 4.50609 32.9514C4.3852 32.9002 4.25507 32.8469 4.11569 32.7907C3.93898 32.7168 3.77436 32.6542 3.62076 32.6023C3.47025 32.5519 3.31261 32.5263 3.15392 32.5262C2.94947 32.5262 2.79623 32.5703 2.69418 32.6584C2.59178 32.747 2.53134 32.8515 2.51285 32.972C2.494 33.1488 2.54983 33.2949 2.67996 33.4112C2.81009 33.5274 3.00067 33.6366 3.25169 33.7383C3.53969 33.8592 3.84618 33.9921 4.17151 34.1358C4.49649 34.2801 4.78485 34.4565 5.03551 34.6656C5.28186 34.8687 5.47749 35.1264 5.60689 35.4183C5.73703 35.7109 5.75089 36.0664 5.64885 36.4846C5.60263 36.6517 5.52334 36.8259 5.41205 37.0069C5.3004 37.1882 5.14467 37.3532 4.94485 37.5018C4.74503 37.6504 4.50396 37.7738 4.22023 37.8712C3.93685 37.969 3.60511 38.0177 3.2236 38.0177C3.14929 38.0177 3.08885 38.0131 3.04227 38.0035C2.5964 37.985 2.15765 37.8691 1.72529 37.6551C1.29329 37.4417 0.933116 37.1584 0.645116 36.8053L0.603516 36.7633L0.645116 36.7075C0.691338 36.6328 0.742894 36.5731 0.79836 36.5262C0.854182 36.48 0.905382 36.438 0.951604 36.401C1.05511 36.3471 1.16985 36.3184 1.28654 36.3171C1.41632 36.3171 1.54183 36.3431 1.66272 36.3939C1.7836 36.4451 1.91338 36.4984 2.05276 36.5539C2.18289 36.6193 2.32938 36.6748 2.49187 36.7217C2.65436 36.768 2.83356 36.8007 3.02876 36.8188C3.36298 36.8188 3.60227 36.7541 3.74627 36.624C3.89027 36.4938 3.97205 36.3637 3.99054 36.2336ZM7.44654 34.31C7.70939 34.1471 7.99647 34.0271 8.29703 33.9544C8.62068 33.8748 8.95287 33.835 9.28618 33.836C9.76974 33.836 10.2295 33.9057 10.6664 34.0458C10.6384 33.7571 10.5779 33.5018 10.4851 33.2789C10.3642 32.9909 10.1829 32.7818 9.94182 32.6517C9.84682 32.6041 9.74608 32.569 9.64209 32.5472C9.52044 32.5223 9.39647 32.5107 9.27232 32.5123H9.11943C8.98775 32.5219 8.85714 32.5427 8.72903 32.5745C8.59725 32.6081 8.46709 32.6477 8.33898 32.6933C8.21079 32.7393 8.08037 32.7788 7.94823 32.8117C7.82532 32.8433 7.69897 32.8597 7.57205 32.8604C7.44227 32.8604 7.31676 32.8327 7.19587 32.7768C7.08458 32.7121 6.98716 32.6048 6.90325 32.4561L6.87551 32.4007L6.90325 32.3587C7.18335 32.0605 7.51664 31.8172 7.886 31.6412C8.26218 31.4599 8.67356 31.3553 9.11943 31.3272C9.15835 31.3188 9.198 31.3142 9.23783 31.3134H9.35623C9.7836 31.3134 10.174 31.3902 10.5271 31.5434C10.8727 31.6916 11.1854 31.9071 11.4469 32.1774C11.9767 32.7537 12.2504 33.5111 12.2696 34.4494V34.561C12.2696 35.5274 12.0232 36.3128 11.5308 36.9166C11.2906 37.2128 10.9947 37.4589 10.6597 37.6412C10.3201 37.8272 9.94147 37.9434 9.52369 37.9896C9.46836 37.999 9.41234 38.0037 9.35623 38.0039H9.17489C8.98005 38.0039 8.7756 37.9872 8.56191 37.9548C8.34518 37.9213 8.13412 37.858 7.93471 37.7667C7.72512 37.6856 7.52808 37.5753 7.34947 37.4389C7.16656 37.2971 7.01468 37.1194 6.90325 36.9166C6.72654 36.6471 6.63374 36.3171 6.62449 35.9271V35.8432C6.62449 35.4808 6.6988 35.1793 6.84743 34.9372C6.97756 34.6958 7.17738 34.4867 7.44689 34.31M10.3322 34.9792C10.2113 34.9603 10.0741 34.9422 9.92085 34.9233C9.76594 34.9046 9.61004 34.8953 9.454 34.8952C9.32387 34.8952 9.198 34.9024 9.07783 34.9166C8.96356 34.9288 8.85114 34.9545 8.74289 34.993C8.51071 35.0677 8.334 35.1836 8.21311 35.3415C8.16634 35.398 8.12879 35.4616 8.10183 35.5299C8.07409 35.5996 8.0556 35.676 8.04636 35.7596C8.0352 35.8005 8.03041 35.8428 8.03214 35.8851C8.03214 35.9779 8.04636 36.0778 8.07409 36.1848C8.10183 36.2915 8.15765 36.3918 8.2412 36.4842C8.31587 36.5774 8.42467 36.6563 8.56903 36.7214C8.71267 36.7864 8.90574 36.8188 9.14751 36.8188C9.22147 36.8188 9.27729 36.8142 9.31463 36.8049C9.57418 36.7957 9.80245 36.7214 9.99729 36.582C10.0904 36.5262 10.1694 36.459 10.2344 36.3797C10.2995 36.3008 10.355 36.2151 10.4016 36.1219C10.5008 35.9535 10.5714 35.7698 10.6106 35.5783C10.646 35.4087 10.6647 35.236 10.6664 35.0627C10.6572 35.0627 10.6501 35.0606 10.6451 35.056C10.6408 35.0513 10.6341 35.0488 10.6248 35.0488C10.5832 35.0387 10.5414 35.0294 10.4993 35.0211C10.4431 35.0095 10.3873 34.9955 10.3322 34.9792ZM14.7639 31.648C15.1728 31.4346 15.6421 31.3272 16.1719 31.3272C16.593 31.3239 17.0096 31.4144 17.3914 31.5921C17.7615 31.7641 18.0951 32.0055 18.3742 32.3032C18.6629 32.6114 18.892 32.9704 19.0497 33.3621C19.2126 33.7617 19.294 34.1984 19.294 34.6723C19.294 35.1278 19.2193 35.5576 19.0711 35.9619C18.93 36.3531 18.7173 36.7146 18.4439 37.0279C18.1685 37.3296 17.8341 37.5716 17.4615 37.739C17.0757 37.9153 16.6458 38.0035 16.1722 38.0035C15.7511 38.007 15.3345 37.9166 14.9527 37.739C14.5826 37.567 14.249 37.3256 13.9699 37.0279C13.6855 36.7216 13.4609 36.3647 13.3079 35.9758C13.145 35.5715 13.064 35.137 13.064 34.6723V29.7244C13.064 29.1672 13.2147 28.7697 13.5169 28.5326C13.8184 28.2961 14.2579 28.1774 14.8339 28.1774C14.8214 28.2605 14.8121 28.3442 14.8062 28.428C14.7969 28.5312 14.7898 28.6698 14.7848 28.8465C14.7802 29.0229 14.7777 29.2508 14.7777 29.5296V29.9683C14.7777 30.1774 14.776 30.3985 14.7713 30.6304C14.7667 30.8625 14.7642 31.0762 14.7642 31.2718L14.7639 31.648ZM16.1719 36.8049C16.2928 36.8049 16.4346 36.7772 16.5971 36.7214C16.7596 36.6656 16.9153 36.5614 17.064 36.4078C17.2126 36.2549 17.3377 36.0362 17.4405 35.7525C17.5425 35.4691 17.5934 35.1047 17.5934 34.6584C17.5934 34.2122 17.5425 33.8481 17.4405 33.5644C17.3381 33.281 17.2126 33.0631 17.0636 32.9095C16.9153 32.7559 16.7596 32.6517 16.5971 32.5955C16.4346 32.5397 16.2928 32.5123 16.1722 32.5123C16.0513 32.5123 15.9091 32.5397 15.747 32.5955C15.5841 32.6517 15.4284 32.7559 15.2801 32.9095C15.1308 33.0627 15.0056 33.281 14.9032 33.5644C14.8012 33.8481 14.7504 34.2122 14.7504 34.6584C14.7504 35.1047 14.8012 35.4691 14.9032 35.7525C15.0056 36.0362 15.1308 36.2545 15.2801 36.4078C15.4284 36.561 15.5841 36.6656 15.747 36.7214C15.9095 36.7772 16.051 36.8049 16.1719 36.8049ZM21.7612 31.648C22.1701 31.4346 22.6394 31.3272 23.1685 31.3272C23.6051 31.3272 24.0119 31.4161 24.388 31.5921C24.7581 31.7641 25.0918 32.0055 25.3708 32.3032C25.6597 32.6113 25.8889 32.9704 26.0467 33.3621C26.2092 33.7617 26.2906 34.1984 26.2906 34.6723C26.2906 35.1278 26.2163 35.5576 26.0677 35.9619C25.9266 36.3531 25.7139 36.7146 25.4405 37.0279C25.165 37.3295 24.8307 37.5715 24.4581 37.739C24.0723 37.9153 23.6424 38.0035 23.1685 38.0035C22.7474 38.0069 22.3308 37.9165 21.9489 37.739C21.579 37.5669 21.2455 37.3255 20.9665 37.0279C20.6821 36.7216 20.4575 36.3647 20.3045 35.9758C20.1416 35.5715 20.0606 35.137 20.0606 34.6723V29.7244C20.0606 29.1672 20.2113 28.7697 20.5136 28.5326C20.8151 28.2961 21.2545 28.1774 21.8305 28.1774C21.818 28.2605 21.8087 28.3442 21.8028 28.428C21.7936 28.5312 21.7864 28.6698 21.7818 28.8465C21.7768 29.0229 21.7747 29.2508 21.7747 29.5296V29.9683C21.7747 30.1774 21.7726 30.3985 21.768 30.6304C21.7633 30.8441 21.7609 31.058 21.7608 31.2718L21.7612 31.648ZM23.1685 36.8049C23.2894 36.8049 23.4316 36.7772 23.5937 36.7214C23.7562 36.6656 23.912 36.5614 24.0606 36.4078C24.2092 36.2549 24.3347 36.0362 24.4375 35.7525C24.5392 35.4691 24.5904 35.1047 24.5904 34.6584C24.5904 34.2122 24.5392 33.8481 24.4375 33.5644C24.3347 33.281 24.2092 33.0631 24.0606 32.9095C23.912 32.7559 23.7562 32.6517 23.5937 32.5955C23.4312 32.5397 23.2894 32.5123 23.1685 32.5123C23.048 32.5123 22.9061 32.5397 22.7436 32.5955C22.5808 32.6517 22.425 32.7559 22.2768 32.9095C22.1278 33.0627 22.0023 33.281 21.9002 33.5644C21.7978 33.8481 21.7473 34.2122 21.7473 34.6584C21.7473 35.1047 21.7978 35.4691 21.9002 35.7525C22.0023 36.0362 22.1278 36.2545 22.2771 36.4078C22.425 36.561 22.5808 36.6656 22.7436 36.7214C22.9061 36.7772 23.048 36.8049 23.1685 36.8049ZM28.0887 34.31C28.3514 34.1472 28.6384 34.0272 28.9388 33.9544C29.2626 33.8747 29.5949 33.835 29.9283 33.836C30.4115 33.836 30.8716 33.9057 31.3082 34.0458C31.2805 33.7571 31.22 33.5018 31.1272 33.2789C31.0064 32.9909 30.825 32.7818 30.5836 32.6517C30.4886 32.6041 30.3879 32.569 30.2839 32.5472C30.1623 32.5224 30.0385 32.5107 29.9144 32.5123H29.7612C29.6296 32.5219 29.4992 32.5427 29.3712 32.5745C29.2407 32.6076 29.1109 32.6471 28.9808 32.6933C28.8527 32.7392 28.7224 32.7788 28.5904 32.8117C28.4674 32.8433 28.3411 32.8597 28.2142 32.8604C28.084 32.8604 27.9585 32.8327 27.8376 32.7768C27.7264 32.7121 27.6289 32.6048 27.545 32.4561L27.5173 32.4007L27.545 32.3587C27.8251 32.0605 28.1584 31.8172 28.5278 31.6412C28.904 31.4599 29.3153 31.3553 29.7612 31.3272C29.8001 31.3188 29.8398 31.3142 29.8796 31.3134H29.998C30.4254 31.3134 30.8158 31.3902 31.1692 31.5434C31.5147 31.6917 31.8272 31.9072 32.0887 32.1774C32.6184 32.7537 32.8926 33.5111 32.9114 34.4494V34.561C32.9114 35.5274 32.665 36.3128 32.1726 36.9166C31.9324 37.2128 31.6364 37.4589 31.3015 37.6412C30.9619 37.8272 30.5836 37.9434 30.1655 37.9896C30.1101 37.999 30.0541 38.0037 29.998 38.0039H29.817C29.6116 38.0029 29.4066 37.9865 29.2037 37.9548C28.987 37.9212 28.7759 37.8579 28.5765 37.7667C28.3669 37.6856 28.1699 37.5753 27.9912 37.4389C27.8083 37.2971 27.6565 37.1194 27.545 36.9166C27.3687 36.6471 27.2755 36.3171 27.2663 35.9271V35.8432C27.2663 35.4808 27.3406 35.1793 27.4892 34.9372C27.6193 34.6958 27.8192 34.4867 28.0887 34.31ZM30.974 34.9792C30.8531 34.9603 30.7159 34.9422 30.5626 34.9233C30.4077 34.9046 30.2518 34.8953 30.0958 34.8952C29.9656 34.8952 29.8401 34.9024 29.7196 34.9166C29.6054 34.9288 29.4931 34.9544 29.385 34.993C29.1525 35.0677 28.9758 35.1836 28.8552 35.3415C28.8083 35.398 28.7707 35.4616 28.7436 35.5299C28.7159 35.5996 28.6974 35.676 28.6881 35.7596C28.677 35.8005 28.6722 35.8428 28.6739 35.8851C28.6739 35.9779 28.6881 36.0778 28.7159 36.1848C28.7436 36.2915 28.7994 36.3918 28.8833 36.4842C28.9576 36.5774 29.0664 36.6563 29.2108 36.7214C29.3544 36.7864 29.5475 36.8188 29.7893 36.8188C29.8632 36.8188 29.9191 36.8142 29.9564 36.8049C30.2163 36.7957 30.4442 36.7214 30.6394 36.582C30.7322 36.5262 30.8112 36.459 30.8762 36.3797C30.9413 36.3008 30.9968 36.2151 31.0437 36.1219C31.1428 35.9535 31.2133 35.7698 31.2524 35.5783C31.2878 35.4087 31.3065 35.236 31.3082 35.0627C31.299 35.0627 31.2919 35.0606 31.2876 35.056C31.2818 35.051 31.2743 35.0484 31.2666 35.0488C31.225 35.0387 31.1832 35.0294 31.1411 35.0211C31.0848 35.0095 31.0291 34.9955 30.974 34.9792ZM33.9568 34.5056C33.9568 33.883 34.0471 33.3742 34.228 32.9792C34.4094 32.5845 34.644 32.2752 34.932 32.0522C35.2169 31.8307 35.5479 31.676 35.9006 31.5996C36.2508 31.5214 36.6084 31.4816 36.9672 31.4808H37.6499C37.6961 31.676 37.7057 31.8574 37.6784 32.0245C37.6592 32.1639 37.5966 32.2983 37.4899 32.4284C37.3832 32.5589 37.2083 32.6378 36.9672 32.6656C36.8084 32.6846 36.6519 32.7196 36.5 32.7701C36.3433 32.8234 36.2021 32.9144 36.0887 33.035C35.9681 33.1605 35.8682 33.3393 35.7893 33.5715C35.71 33.8037 35.6709 34.1152 35.6709 34.5056V36.5262C35.6709 36.8053 35.673 37.0304 35.678 37.2024C35.6823 37.3745 35.6894 37.5114 35.6986 37.6135C35.7079 37.7251 35.7171 37.8087 35.7264 37.8645C35.1596 37.8645 34.723 37.7461 34.4165 37.5089C34.1096 37.2721 33.9564 36.875 33.9564 36.3171L33.9568 34.5056ZM4.33756 15.4947C4.30058 15.5182 4.25934 15.5374 4.22556 15.5637C3.92689 15.7984 3.76583 16.2307 3.76583 16.7832L3.77045 16.7932C3.76903 16.8177 3.76725 16.8419 3.76725 16.864V20.379C3.76725 22.2136 2.96405 23.307 1.35765 23.6579C0.977916 23.7408 0.717649 24.0931 0.717649 24.4821V25.5473L1.11303 25.5008C4.01543 25.2216 5.4668 23.5221 5.4668 20.4021V17.7169L5.46787 17.6437C5.47249 17.4136 5.47498 17.1946 5.47498 16.9873V16.5521C5.47498 16.2755 5.47712 16.0501 5.48209 15.8748C5.48636 15.6999 5.49311 15.5619 5.50236 15.4602C5.5116 15.3496 5.52085 15.2668 5.53009 15.2113C5.1372 15.2113 4.81329 15.2711 4.54947 15.3827C4.47054 15.4016 4.39765 15.4401 4.33756 15.4947ZM15.4426 10.838C15.8618 10.838 16.1797 10.582 16.3973 10.07C16.6455 10.6133 16.9712 10.8924 17.3751 10.9077C17.7477 10.9077 18.0346 10.7836 18.2362 10.5354C18.4069 10.3185 18.4922 10.0544 18.4922 9.74395V8.39355H17.8174L17.8405 9.55729C17.8405 9.99213 17.662 10.2094 17.305 10.2094C16.9171 10.2094 16.723 9.87587 16.723 9.20813V8.39391H16.0481V9.20813C16.0481 9.87587 15.8618 10.2094 15.4892 10.2094C15.1319 10.2407 14.9537 10.0156 14.9537 9.53418V8.39355H14.3016V9.74395C14.3016 10.0391 14.3866 10.2951 14.5576 10.512C14.7592 10.7608 15.0544 10.8693 15.4426 10.838ZM13.4984 22.9397C13.1258 22.9397 12.8076 23.0712 12.5438 23.3354C12.416 23.459 12.315 23.6075 12.2469 23.7717C12.1789 23.9359 12.1452 24.1124 12.148 24.2901C12.148 24.6624 12.2796 24.9806 12.5438 25.2448C12.6675 25.3724 12.816 25.4733 12.9802 25.5414C13.1444 25.6094 13.3207 25.6432 13.4984 25.6405C13.8711 25.6405 14.1889 25.5082 14.4531 25.2448C14.7166 24.9806 14.8488 24.6624 14.8488 24.2901C14.8488 23.9175 14.7208 23.5992 14.4648 23.3354C14.2088 23.0712 13.8864 22.9397 13.4984 22.9397ZM37.0124 16.8167C36.2206 14.9856 34.8314 13.9616 32.8449 13.7436C31.8672 13.6352 30.734 13.9221 29.4458 14.6051C28.0385 15.3628 26.8467 16.5056 25.8714 18.0337C25.8643 18.0448 25.8561 18.0561 25.848 18.0661C25.5839 18.3996 25.3047 18.7208 25.011 19.0286C24.7763 19.2704 24.3674 19.1054 24.3656 18.769L24.3493 15.8641C24.3493 15.8588 24.3468 15.857 24.3464 15.8517C24.3493 15.8083 24.3521 15.7632 24.3557 15.7283C24.3656 15.6181 24.376 15.5349 24.3863 15.4794C23.7498 15.4794 23.2656 15.5971 22.9328 15.8318C22.5992 16.0668 22.42 16.4992 22.42 17.0517L22.4229 17.057C22.4215 17.0695 22.419 17.0808 22.419 17.0954L22.4616 19.8666C22.4616 20.3168 22.2672 20.534 21.8796 20.5184L20.3895 20.4952V20.5048C18.2654 20.3726 17.2001 19.2462 17.2001 17.1192V16.112C17.2048 15.9534 17.2108 15.8232 17.22 15.7283C17.2262 15.645 17.2357 15.562 17.2485 15.4794C16.6636 15.4794 16.2181 15.5971 15.9116 15.8318C15.6058 16.0668 15.4529 16.4597 15.4526 17.0112L15.4522 17.0115C15.4522 19.1555 14.3642 20.3921 12.1893 20.5102C12.1698 20.5112 12.1502 20.5112 12.1306 20.5102C9.95534 20.3921 8.86591 19.2632 8.86591 17.1192V13.0823L8.87018 12.8C8.8748 12.5699 8.87729 12.3509 8.87729 12.1436V11.708C8.87729 11.4318 8.87943 11.206 8.88405 11.0311C8.88867 10.8561 8.89543 10.7182 8.90467 10.6165C8.91391 10.5063 8.92316 10.4231 8.9324 10.3676C8.36103 10.3676 7.92547 10.4849 7.62645 10.72C7.32671 10.955 7.17703 11.3493 7.17703 11.9018V13.3134C7.16991 13.3667 7.16636 13.4119 7.16636 13.4424V17.1427C7.16636 20.4387 8.78343 22.1461 12.0087 22.2755L12.0083 22.2876C12.0542 22.2876 12.0958 22.2819 12.1409 22.2808C12.1985 22.2823 12.2529 22.2872 12.3112 22.288L12.3109 22.272C13.9969 22.1952 15.2478 21.7052 16.0542 20.7928C16.0897 20.7522 16.1335 20.7197 16.1827 20.6976C16.2319 20.6755 16.2853 20.6642 16.3392 20.6646C16.3932 20.665 16.4464 20.6771 16.4953 20.6999C16.5441 20.7228 16.5875 20.756 16.6224 20.7971C17.4632 21.7632 18.8044 22.2602 20.6458 22.2876L20.6455 22.2645H37.4241C37.6336 22.2645 37.8042 22.0924 37.8017 21.8833C37.7747 19.6807 37.5112 17.9918 37.0124 16.8167ZM35.4078 20.5194L27.0945 20.5418C26.2874 20.5418 25.9379 20.5109 26.0471 20.4487C26.1864 20.3712 26.8613 19.5872 28.0723 18.0974C29.2997 16.5934 30.7091 15.6963 32.3013 15.4062C32.3376 15.3998 32.3756 15.3976 32.4126 15.4001C33.918 15.5107 34.9392 16.3637 35.4757 17.9576C35.6784 18.6055 35.7808 19.3354 35.784 20.1472C35.7831 20.2463 35.7431 20.3411 35.6726 20.4108C35.6021 20.4806 35.5069 20.5196 35.4078 20.5194Z" fill="black"/>
</g>
<defs>
<clipPath id="clip0_676_27381">
<rect width="96" height="46" fill="white"/>
</clipPath>
</defs>
</svg>
