<svg width="36" height="32" viewBox="0 0 36 32" fill="none" xmlns="http://www.w3.org/2000/svg">
<g id="Logo">
<path id="Shape" d="M16.0431 27.5373L16.1725 27.4594L16.2985 27.5419C18.982 29.2946 22.2581 30.2222 25.7691 30.2222H27.2352V26.3668H26.108C23.9635 26.3781 21.8661 25.8024 20.0956 24.7164L19.8794 24.585L20.0582 24.4138C24.0017 20.6363 26.1744 15.8991 26.1744 11.0733C26.1744 5.33982 22.9392 1.77777 17.7118 1.77777C12.1098 1.77777 8.76562 5.75089 8.76562 12.4135C8.76562 17.1109 10.1857 21.2766 12.8709 24.4688L13.0071 24.6323L12.6666 24.86C11.4576 25.6424 10.923 25.9893 9.45523 26.518L11.3282 29.7149C13.3017 29.0929 14.2229 28.6314 16.0431 27.5373ZM17.5756 5.63322C19.7687 5.63322 21.0798 7.66715 21.0798 11.0733C21.0798 14.7103 19.5882 18.3518 16.8792 21.3285L16.6816 21.5455L16.5114 21.3072C14.7848 18.8087 13.8721 15.6256 13.8721 12.0987C13.8687 7.98958 15.2207 5.63322 17.5671 5.63322H17.5756Z" fill="#1548EF"/>
</g>
</svg>
