<svg width="20" height="20" viewBox="0 0 20 20" fill="none" xmlns="http://www.w3.org/2000/svg">
<g clip-path="url(#clip0_367_7356)">
<path d="M10 20C15.5228 20 20 15.5228 20 10C20 4.47715 15.5228 0 10 0C4.47715 0 0 4.47715 0 10C0 15.5228 4.47715 20 10 20Z" fill="#6DA544"/>
<path d="M5.65234 11.9564C5.65234 12.6767 6.23633 13.2607 6.95668 13.2607H10.8697C10.8697 13.861 11.3564 14.3476 11.9567 14.3476H13.261C13.8613 14.3476 14.348 13.861 14.348 13.2607V11.9564H5.65234Z" fill="#F0F0F0"/>
<path d="M14.4555 5.65253V8.696C14.4555 9.17549 14.0654 9.56557 13.5859 9.56557V10.8699C14.7846 10.8699 15.7598 9.89467 15.7598 8.696V5.65253H14.4555Z" fill="#F0F0F0"/>
<path d="M5.10785 8.69582C5.10785 9.17531 4.71777 9.56538 4.23828 9.56538V10.8697C5.43699 10.8697 6.41219 9.89448 6.41219 8.69582V5.65234H5.10785V8.69582Z" fill="#F0F0F0"/>
<path d="M13.8043 5.65253H12.5V8.696H13.8043V5.65253Z" fill="#F0F0F0"/>
<path d="M10.5427 7.39167C10.5427 7.51155 10.4452 7.60905 10.3253 7.60905C10.2055 7.60905 10.1079 7.51151 10.1079 7.39167V5.65253H8.8036V7.39167C8.8036 7.51155 8.70606 7.60905 8.58621 7.60905C8.46637 7.60905 8.36883 7.51151 8.36883 7.39167V5.65253H7.06445V7.39167C7.06445 8.23077 7.74711 8.91342 8.58621 8.91342C8.90938 8.91342 9.20907 8.81186 9.45579 8.63936C9.70247 8.81182 10.0022 8.91342 10.3254 8.91342C10.3904 8.91342 10.4544 8.90885 10.5174 8.90085C10.4249 9.28167 10.082 9.56557 9.67317 9.56557V10.8699C10.8719 10.8699 11.8471 9.89467 11.8471 8.696V7.39167V5.65253H10.5427V7.39167H10.5427Z" fill="#F0F0F0"/>
<path d="M9.02098 9.56506H7.06445V10.8694H9.02098V9.56506Z" fill="#F0F0F0"/>
</g>
<defs>
<clipPath id="clip0_367_7356">
<rect width="20" height="20" fill="white"/>
</clipPath>
</defs>
</svg>
