<svg width="32" height="32" viewBox="0 0 32 32" fill="none" xmlns="http://www.w3.org/2000/svg">
<g id="vuesax/linear/book-square">
<g id="book-square">
<path id="Vector" d="M12.0003 29.3332H20.0003C26.667 29.3332 29.3337 26.6665 29.3337 19.9998V11.9998C29.3337 5.33317 26.667 2.6665 20.0003 2.6665H12.0003C5.33366 2.6665 2.66699 5.33317 2.66699 11.9998V19.9998C2.66699 26.6665 5.33366 29.3332 12.0003 29.3332Z" stroke="#1548EF" stroke-width="2" stroke-linecap="round" stroke-linejoin="round"/>
<g id="Group">
<path id="Vector_2" d="M24.5065 20.3598V10.1065C24.5065 9.07982 23.6798 8.33317 22.6665 8.41317H22.6132C20.8265 8.55984 18.1199 9.47985 16.5999 10.4265L16.4532 10.5199C16.2132 10.6665 15.7998 10.6665 15.5465 10.5199L15.3332 10.3865C13.8265 9.43985 11.1198 8.54649 9.33317 8.39982C8.31984 8.31982 7.49316 9.07985 7.49316 10.0932V20.3598C7.49316 21.1732 8.15981 21.9465 8.97314 22.0398L9.21313 22.0798C11.0531 22.3198 13.9065 23.2665 15.5332 24.1598L15.5732 24.1732C15.7998 24.3065 16.1731 24.3065 16.3865 24.1732C18.0131 23.2665 20.8798 22.3332 22.7332 22.0798L23.0132 22.0398C23.8399 21.9465 24.5065 21.1865 24.5065 20.3598Z" stroke="#1548EF" stroke-width="2" stroke-linecap="round" stroke-linejoin="round"/>
<path id="Vector_3" d="M16 10.7998V23.5465" stroke="#1548EF" stroke-width="2" stroke-linecap="round" stroke-linejoin="round"/>
</g>
</g>
</g>
</svg>
