<svg width="24" height="24" viewBox="0 0 24 24" fill="none" xmlns="http://www.w3.org/2000/svg">
<g id="vuesax/bulk/grammerly">
<g id="grammerly">
<path id="Vector" d="M19.0707 4.95002C23.0407 8.92002 22.9707 15.4 18.8707 19.29C15.0807 22.88 8.93069 22.88 5.13069 19.29C1.02069 15.4 0.950683 8.92002 4.93068 4.95002C8.83068 1.04002 15.1707 1.04002 19.0707 4.95002Z" fill="#5FE9D0"/>
<g id="Group">
<path id="Vector_2" d="M12.0007 18.32C10.4207 18.32 8.85073 17.75 7.65073 16.62C7.35073 16.33 7.34073 15.86 7.62073 15.56C7.91073 15.26 8.38073 15.25 8.68073 15.53C10.5107 17.26 13.4907 17.26 15.3207 15.53C15.6207 15.25 16.1007 15.26 16.3807 15.56C16.6607 15.86 16.6507 16.34 16.3507 16.62C15.1507 17.75 13.5807 18.32 12.0007 18.32Z" fill="#134E48"/>
</g>
</g>
</g>
</svg>
