<svg width="32" height="32" viewBox="0 0 32 32" fill="none" xmlns="http://www.w3.org/2000/svg">
<g id="message-chat-circle">
<path id="Icon" d="M8.12517 14.9718C8.04229 14.4377 7.9993 13.8906 7.9993 13.3334C7.9993 7.44238 12.8063 2.66675 18.7361 2.66675C24.6659 2.66675 29.473 7.44238 29.473 13.3334C29.473 14.6642 29.2277 15.938 28.7796 17.1128C28.6865 17.3567 28.6399 17.4787 28.6188 17.574C28.5979 17.6683 28.5898 17.7347 28.5875 17.8314C28.5852 17.9289 28.5985 18.0363 28.6249 18.2512L29.1617 22.6114C29.2198 23.0835 29.2488 23.3195 29.1703 23.491C29.1015 23.6414 28.9793 23.7608 28.8275 23.8261C28.6541 23.9006 28.4189 23.8661 27.9483 23.7972L23.7013 23.1746C23.4795 23.1421 23.3686 23.1259 23.2677 23.1264C23.1678 23.127 23.0986 23.1344 23.0009 23.1549C22.9021 23.1757 22.7758 23.223 22.5233 23.3176C21.3456 23.7587 20.0692 24.0001 18.7361 24.0001C18.1786 24.0001 17.6309 23.9579 17.0962 23.8764M10.1748 29.3334C14.128 29.3334 17.3327 26.0502 17.3327 22.0001C17.3327 17.95 14.128 14.6667 10.1748 14.6667C6.22159 14.6667 3.01689 17.95 3.01689 22.0001C3.01689 22.8142 3.14638 23.5973 3.38541 24.3291C3.48646 24.6384 3.53698 24.793 3.55356 24.8987C3.57087 25.009 3.5739 25.0709 3.56746 25.1824C3.56128 25.2891 3.53457 25.4098 3.48114 25.6512L2.66602 29.3334L6.65909 28.7881C6.87704 28.7583 6.98601 28.7434 7.08117 28.7441C7.18137 28.7448 7.23456 28.7502 7.33283 28.7698C7.42615 28.7884 7.5649 28.8373 7.84238 28.9353C8.57347 29.1933 9.35816 29.3334 10.1748 29.3334Z" stroke="#1548EF" stroke-width="2.5" stroke-linecap="round" stroke-linejoin="round"/>
</g>
</svg>
