<svg width="32" height="32" viewBox="0 0 32 32" fill="none" xmlns="http://www.w3.org/2000/svg">
<g id="rocket-01">
<path id="Icon" d="M17.3348 14.6665L4.66814 27.3332M18.6927 4.71783C20.3167 5.79544 21.8777 7.06588 23.3363 8.52453C24.8076 9.99577 26.0873 11.5711 27.1709 13.2102M12.3414 10.5281L8.50826 9.25035C8.06682 9.1032 7.58059 9.19684 7.22537 9.49741L3.41583 12.7209C2.63592 13.3808 2.8575 14.6367 3.81614 14.9898L7.42574 16.3197M15.5762 24.4699L16.9061 28.0795C17.2592 29.0382 18.5151 29.2597 19.175 28.4798L22.3985 24.6703C22.6991 24.3151 22.7927 23.8288 22.6455 23.3874L21.3678 19.5542M25.7996 3.02751L19.2576 4.11784C18.5512 4.23557 17.9033 4.58278 17.414 5.10576L8.59662 14.5313C6.31108 16.9745 6.37465 20.7899 8.74032 23.1556C11.106 25.5212 14.9214 25.5848 17.3646 23.2993L26.7901 14.4818C27.3131 13.9926 27.6603 13.3447 27.778 12.6383L28.8684 6.09629C29.1692 4.29144 27.6044 2.7267 25.7996 3.02751Z" stroke="#1548EF" stroke-width="2.5" stroke-linecap="round" stroke-linejoin="round"/>
</g>
</svg>
