<svg width="52" height="52" viewBox="0 0 52 52" fill="none" xmlns="http://www.w3.org/2000/svg">
<g id="SVG" clip-path="url(#clip0_676_26936)">
<path id="Vector" d="M32.598 21.5C32.431 20 30.9981 17 26.5983 17C21.0986 17 20.5986 20.5 20.5986 21.5C20.5986 22.5 20.5986 25 26.5983 26C32.598 27 33.098 30 33.098 31C33.098 32 32.598 36.5 26.5983 36.5C21.7985 36.5 19.9316 32.5 19.5986 30.5" stroke="#1548EF" stroke-width="3"/>
<path id="Vector_2" d="M26.5986 13V40" stroke="#1548EF" stroke-width="3"/>
<path id="Vector_3" d="M26 1.5C39.5309 1.5 50.5 12.4691 50.5 26C50.5 39.5309 39.5309 50.5 26 50.5C12.4691 50.5 1.5 39.5309 1.5 26C1.5 12.4691 12.4691 1.5 26 1.5Z" stroke="#1548EF" stroke-width="3"/>
</g>
<defs>
<clipPath id="clip0_676_26936">
<rect width="52" height="52" fill="white"/>
</clipPath>
</defs>
</svg>
