<svg width="52" height="52" viewBox="0 0 52 52" fill="none" xmlns="http://www.w3.org/2000/svg">
<g id="vuesax/linear/color-swatch">
<g id="color-swatch">
<path id="Vector" d="M21.6663 9.74967V38.9997C21.6663 41.3397 20.713 43.4847 19.1963 45.0447L19.1097 45.1313C18.9147 45.3263 18.698 45.5213 18.503 45.673C17.853 46.2363 17.1163 46.6697 16.358 46.973C16.1196 47.0813 15.8813 47.168 15.643 47.2547C14.798 47.5363 13.888 47.6663 12.9997 47.6663C12.4147 47.6663 11.8297 47.6013 11.2664 47.493C10.9847 47.428 10.703 47.363 10.4213 47.2764C10.0747 47.168 9.74969 47.0597 9.42469 46.908C9.42469 46.8863 9.42467 46.8863 9.403 46.908C8.79633 46.6047 8.21136 46.258 7.66969 45.8464L7.648 45.8247C7.36634 45.608 7.10637 45.3913 6.86804 45.1313C6.6297 44.8713 6.39133 44.6114 6.153 44.3297C5.74133 43.788 5.39469 43.203 5.09135 42.5964C5.11302 42.5747 5.11302 42.5747 5.09135 42.5747C5.09135 42.5747 5.09133 42.553 5.06967 42.5314C4.93967 42.228 4.83133 41.903 4.72299 41.578C4.63633 41.2963 4.57131 41.0147 4.50631 40.733C4.39798 40.1697 4.33301 39.5847 4.33301 38.9997V9.74967C4.33301 6.49967 6.49967 4.33301 9.74967 4.33301H16.2497C19.4997 4.33301 21.6663 6.49967 21.6663 9.74967Z" stroke="#1548EF" stroke-width="3" stroke-linecap="round" stroke-linejoin="round"/>
<path id="Vector_2" d="M47.6667 35.7497V42.2497C47.6667 45.4997 45.5 47.6663 42.25 47.6663H13C13.8883 47.6663 14.7983 47.5363 15.6433 47.2547C15.8817 47.168 16.12 47.0813 16.3583 46.973C17.1166 46.6697 17.8534 46.2363 18.5034 45.673C18.6984 45.5213 18.915 45.3263 19.11 45.1313L19.1966 45.0447L33.93 30.333H42.25C45.5 30.333 47.6667 32.4997 47.6667 35.7497Z" stroke="#1548EF" stroke-width="3" stroke-linecap="round" stroke-linejoin="round"/>
<path id="Vector_3" d="M10.422 47.2765C9.12198 46.8865 7.88701 46.1715 6.86868 45.1315C5.82868 44.1131 5.11363 42.8781 4.72363 41.5781C5.56863 44.2865 7.71364 46.4315 10.422 47.2765Z" stroke="#1548EF" stroke-width="3" stroke-linecap="round" stroke-linejoin="round"/>
<path id="Vector_4" d="M39.8013 24.4614L33.9297 30.3331L19.1963 45.0447C20.713 43.4847 21.6663 41.3397 21.6663 38.9997V18.0697L27.538 12.1981C29.8346 9.90142 32.9113 9.90142 35.208 12.1981L39.8013 16.7914C42.098 19.0881 42.098 22.1647 39.8013 24.4614Z" stroke="#1548EF" stroke-width="3" stroke-linecap="round" stroke-linejoin="round"/>
<path id="Vector_5" d="M12.9997 41.1663C14.1963 41.1663 15.1663 40.1963 15.1663 38.9997C15.1663 37.8031 14.1963 36.833 12.9997 36.833C11.8031 36.833 10.833 37.8031 10.833 38.9997C10.833 40.1963 11.8031 41.1663 12.9997 41.1663Z" stroke="#1548EF" stroke-width="3" stroke-linecap="round" stroke-linejoin="round"/>
</g>
</g>
</svg>
