<svg width="32" height="32" viewBox="0 0 32 32" fill="none" xmlns="http://www.w3.org/2000/svg">
<g id="vuesax/bulk/tick-square">
<g id="tick-square">
<path id="Vector" d="M21.5868 2.66675H10.4134C5.56008 2.66675 2.66675 5.56008 2.66675 10.4134V21.5734C2.66675 26.4401 5.56008 29.3334 10.4134 29.3334H21.5734C26.4268 29.3334 29.3201 26.4401 29.3201 21.5868V10.4134C29.3334 5.56008 26.4401 2.66675 21.5868 2.66675Z" fill="#99F6E0"/>
<path id="Vector_2" d="M14.1067 20.7732C13.84 20.7732 13.5867 20.6666 13.4 20.4799L9.62667 16.7066C9.24 16.3199 9.24 15.6799 9.62667 15.2932C10.0133 14.9066 10.6533 14.9066 11.04 15.2932L14.1067 18.3599L20.96 11.5066C21.3467 11.1199 21.9867 11.1199 22.3733 11.5066C22.76 11.8932 22.76 12.5332 22.3733 12.9199L14.8133 20.4799C14.6267 20.6666 14.3733 20.7732 14.1067 20.7732Z" fill="#107569"/>
</g>
</g>
</svg>
