<svg width="32" height="32" viewBox="0 0 32 32" fill="none" xmlns="http://www.w3.org/2000/svg">
<g id="vuesax/bulk/tick-square">
<g id="tick-square">
<path id="Vector" d="M21.5865 2.66675H10.4132C5.55984 2.66675 2.6665 5.56008 2.6665 10.4134V21.5734C2.6665 26.4401 5.55984 29.3334 10.4132 29.3334H21.5732C26.4265 29.3334 29.3198 26.4401 29.3198 21.5868V10.4134C29.3332 5.56008 26.4398 2.66675 21.5865 2.66675Z" fill="#FEF7C3"/>
<path id="Vector_2" d="M14.1064 20.7732C13.8398 20.7732 13.5864 20.6666 13.3998 20.4799L9.62643 16.7066C9.23976 16.3199 9.23976 15.6799 9.62643 15.2932C10.0131 14.9066 10.6531 14.9066 11.0398 15.2932L14.1064 18.3599L20.9598 11.5066C21.3464 11.1199 21.9864 11.1199 22.3731 11.5066C22.7598 11.8932 22.7598 12.5332 22.3731 12.9199L14.8131 20.4799C14.6264 20.6666 14.3731 20.7732 14.1064 20.7732Z" fill="#CA8504"/>
</g>
</g>
</svg>
