<svg width="28" height="24" viewBox="0 0 28 24" fill="none" xmlns="http://www.w3.org/2000/svg">
<path id="Vector" opacity="0.3" d="M28 2.84633C26.9581 3.33633 25.846 3.66025 24.704 3.80633C25.932 3.00696 26.8279 1.78877 27.225 0.378327C26.1077 1.08112 24.8746 1.58018 23.583 1.85233C23.048 1.26314 22.3957 0.792386 21.668 0.470327C20.9476 0.15201 20.1675 -0.00825494 19.38 0.000327348C18.6186 0.00519564 17.8662 0.165469 17.169 0.471327C16.4642 0.781087 15.8285 1.22851 15.299 1.78733C14.7619 2.35419 14.3398 3.01981 14.056 3.74733C13.7687 4.48165 13.6235 5.26383 13.628 6.05233C13.627 6.51933 13.677 6.98533 13.777 7.44033C11.4764 7.31435 9.23135 6.68559 7.19998 5.59833C5.14341 4.49612 3.34572 2.96775 1.92698 1.11533C1.19065 2.45971 0.966815 4.02549 1.29698 5.52233C1.61662 7.0063 2.47534 8.31896 3.70698 9.20633C2.78969 9.17603 1.89454 8.91684 1.10298 8.45233C1.09397 9.83649 1.54804 11.1839 2.39298 12.2803C3.21944 13.3549 4.3969 14.1051 5.71998 14.4003C4.87798 14.6413 3.99046 14.6766 3.13198 14.5033C3.48607 15.6888 4.19788 16.7359 5.16998 17.5013C6.12307 18.2509 7.29283 18.6725 8.50498 18.7033C6.50169 20.3732 3.97694 21.2888 1.36898 21.2913C0.912977 21.3193 0.456977 21.3193 0.000976562 21.2913C2.59659 23.055 5.6619 23.9987 8.79998 24.0003C10.9711 23.9972 13.1183 23.5472 15.108 22.6783C17.1181 21.7993 18.9308 20.5246 20.438 18.9303C21.9675 17.3122 23.1663 15.411 23.967 13.3333C24.7769 11.2361 25.1781 9.00331 25.149 6.75533V5.96633C26.2757 5.10241 27.2409 4.04617 28 2.84633Z" fill="#1E1F24"/>
</svg>
