<svg width="73" height="26" viewBox="0 0 73 26" fill="none" xmlns="http://www.w3.org/2000/svg">
<g id="uber logo" clip-path="url(#clip0_611_12094)">
<g id="Group">
<path id="Vector" d="M4.3924 18.1032C4.69666 18.9107 5.11791 19.6011 5.65622 20.1744C6.19453 20.7479 6.83226 21.1867 7.56942 21.4909C8.30666 21.7952 9.10822 21.9473 9.97417 21.9473C10.8167 21.9473 11.6066 21.7893 12.3438 21.4733C13.081 21.1573 13.7246 20.7127 14.2746 20.1393C14.8245 19.5659 15.2517 18.8814 15.5559 18.0857C15.8602 17.29 16.0123 16.4007 16.0123 15.4177V0.252197H19.6983V24.8259H16.0474V22.544C15.2283 23.4099 14.2628 24.0769 13.1512 24.5451C12.0395 25.0131 10.8401 25.2471 9.55293 25.2471C8.24227 25.2471 7.01946 25.0189 5.88436 24.5625C4.74933 24.1062 3.76632 23.4568 2.93555 22.6142C2.10479 21.7717 1.44942 20.7596 0.969685 19.5777C0.489869 18.3958 0.25 17.0794 0.25 15.6283V0.252197H3.93604V15.4177C3.93604 16.4007 4.08814 17.2958 4.3924 18.1032Z" fill="#020309"/>
<path id="Vector_2" d="M26.0515 0.252319V9.20414C26.8706 8.38503 27.8185 7.73564 28.895 7.25583C29.9715 6.77601 31.1418 6.53614 32.4055 6.53614C33.7162 6.53614 34.9447 6.78184 36.0915 7.2733C37.2383 7.76477 38.2329 8.43179 39.0755 9.27436C39.918 10.1169 40.5851 11.1115 41.0765 12.2583C41.568 13.4051 41.8137 14.6221 41.8137 15.9093C41.8137 17.1964 41.568 18.4076 41.0765 19.5426C40.5851 20.6777 39.918 21.6665 39.0755 22.5089C38.2329 23.3515 37.2383 24.0185 36.0915 24.51C34.9447 25.0015 33.7161 25.2472 32.4055 25.2472C31.1417 25.2472 29.9657 25.0073 28.8775 24.5275C27.7892 24.0477 26.8355 23.3983 26.0164 22.5792V24.8259H22.5059V0.252319H26.0515ZM26.4552 18.3315C26.7711 19.0805 27.2099 19.7358 27.7716 20.2975C28.3333 20.8591 28.9886 21.3039 29.7375 21.6315C30.4865 21.9591 31.2939 22.123 32.1598 22.123C33.0024 22.123 33.798 21.9591 34.5469 21.6315C35.2958 21.3039 35.9452 20.8592 36.4953 20.2975C37.0453 19.7358 37.4841 19.0805 37.8117 18.3315C38.1394 17.5826 38.3032 16.7752 38.3032 15.9093C38.3032 15.0433 38.1394 14.23 37.8117 13.4694C37.4841 12.7088 37.0453 12.0477 36.4953 11.486C35.9453 10.9244 35.2959 10.4855 34.5469 10.1696C33.798 9.85368 33.0023 9.69561 32.1598 9.69561C31.3173 9.69561 30.5216 9.8536 29.7727 10.1696C29.0238 10.4856 28.3685 10.9244 27.8067 11.486C27.2451 12.0477 26.8004 12.7088 26.4728 13.4694C26.1451 14.23 25.9813 15.0433 25.9813 15.9093C25.9812 16.7752 26.1392 17.5826 26.4552 18.3315Z" fill="#020309"/>
<path id="Vector_3" d="M43.8153 12.2937C44.2833 11.1703 44.927 10.1816 45.746 9.32735C46.565 8.47313 47.5364 7.80028 48.6598 7.30882C49.7832 6.81735 51.0001 6.57166 52.3107 6.57166C53.5979 6.57166 54.7915 6.8057 55.8915 7.27371C56.9914 7.74179 57.9393 8.39126 58.735 9.2221C59.5307 10.0529 60.151 11.0359 60.5955 12.1709C61.0402 13.306 61.2625 14.5405 61.2625 15.8746V17.0331H46.6939C46.811 17.7586 47.045 18.4314 47.396 19.0515C47.7472 19.6717 48.1859 20.21 48.7125 20.6664C49.239 21.1228 49.8358 21.4797 50.5028 21.7371C51.1699 21.9945 51.8777 22.1233 52.6267 22.1233C54.7565 22.1233 56.4767 21.2456 57.7872 19.4903L60.3499 21.386C59.4606 22.5796 58.3607 23.5157 57.0501 24.1944C55.7394 24.8731 54.265 25.2125 52.6268 25.2125C51.2928 25.2125 50.0466 24.9783 48.8881 24.5103C47.7296 24.0423 46.7233 23.387 45.8691 22.5444C45.0148 21.7018 44.342 20.7131 43.8505 19.578C43.3591 18.443 43.1133 17.2084 43.1133 15.8744C43.1131 14.6107 43.3472 13.4171 43.8153 12.2937ZM48.7476 10.907C47.7529 11.7378 47.0918 12.8437 46.7641 14.2245H57.6819C57.3776 12.8437 56.7282 11.7378 55.7335 10.907C54.7388 10.0762 53.5745 9.66082 52.2406 9.66082C50.9065 9.66082 49.7422 10.0762 48.7476 10.907Z" fill="#020309"/>
<path id="Vector_4" d="M67.8976 11.3108C67.1487 12.13 66.7742 13.2416 66.7742 14.6459V24.8265H63.2285V6.92275H66.739V9.13439C67.1837 8.40888 67.763 7.83546 68.4767 7.41421C69.1905 6.99289 70.0389 6.78223 71.0219 6.78223H72.2506V10.0821H70.7762C69.606 10.0822 68.6465 10.4917 67.8976 11.3108Z" fill="#020309"/>
</g>
</g>
<defs>
<clipPath id="clip0_611_12094">
<rect width="72" height="24.9949" fill="white" transform="translate(0.25 0.252686)"/>
</clipPath>
</defs>
</svg>
