<svg width="82" height="23" viewBox="0 0 82 23" fill="none" xmlns="http://www.w3.org/2000/svg">
<g id="Zain logo" clip-path="url(#clip0_611_12101)">
<g id="Clip path group">
<mask id="mask0_611_12101" style="mask-type:luminance" maskUnits="userSpaceOnUse" x="25" y="0" width="57" height="21">
<g id="a">
<path id="Vector" d="M25.0078 0.432129H81.7055V20.778H25.0078V0.432129Z" fill="white"/>
</g>
</mask>
<g mask="url(#mask0_611_12101)">
<g id="Group">
<path id="Vector_2" d="M29.3641 17.683C29.2399 17.683 29.1694 17.6405 29.1694 17.5589C29.1694 17.5153 29.2041 17.4593 29.2757 17.4045C30.2365 16.626 36.5941 11.4976 37.5639 10.7001C39.2506 9.34224 39.6041 8.68008 39.6041 7.71592C39.6041 7.11529 39.3233 6.53591 38.8994 6.18242C38.3883 5.74956 37.6265 5.51582 36.3928 5.51582H25.5622V5.68805C25.5622 6.24842 25.6841 6.85912 25.9626 7.26069C26.4 7.88817 27.2265 8.25057 28.3428 8.25057H35.4522C35.5774 8.25057 35.6468 8.28859 35.6468 8.35236C35.6468 8.40828 35.6155 8.44519 35.536 8.50558C34.5305 9.32099 28.6605 14.0568 27.1986 15.2257C25.5074 16.5824 25.1719 17.2591 25.1719 18.2199C25.1719 18.8161 25.4537 19.3955 25.8788 19.7467C26.3888 20.1818 27.1538 20.4212 28.3909 20.4212H39.7193V20.3127C39.7193 19.5084 39.4911 18.8161 39.0101 18.3787C38.4576 17.8687 37.7406 17.683 36.3995 17.683H29.3641ZM78.5889 16.5298C78.5531 16.5298 78.524 16.5097 78.4938 16.4694C76.2478 13.5456 72.1272 8.15773 71.2313 6.98328C70.2861 5.75178 69.5457 5.3469 68.5692 5.3469C67.8456 5.3469 67.2628 5.612 66.8612 6.03928C66.4116 6.5191 66.1868 7.26068 66.1868 8.10516V17.7445C66.1868 18.7076 66.4362 19.3664 66.9205 19.8485C67.4283 20.3607 68.1554 20.646 69.0345 20.646C69.1039 20.646 69.1497 20.646 69.2124 20.6393V9.58832C69.2124 9.5078 69.247 9.46417 69.3007 9.46417C69.3399 9.46417 69.3645 9.48206 69.3958 9.52793C70.7123 11.2404 75.7087 17.7759 76.6661 19.004C77.6113 20.2333 78.3473 20.646 79.3193 20.646C80.0463 20.646 80.6325 20.3831 81.0306 19.9592C81.4769 19.4771 81.7062 18.7434 81.7062 17.8933V8.25057C81.7062 7.28752 81.4501 6.62647 80.9702 6.13881C80.4602 5.62989 79.7398 5.3469 78.8518 5.3469C78.7891 5.3469 78.7432 5.3469 78.6773 5.35137V16.4101C78.6773 16.4896 78.6392 16.5298 78.5889 16.5298ZM54.1582 14.6093V17.7445C54.1582 18.7076 54.4121 19.3664 54.8942 19.8485C55.3998 20.3607 56.1626 20.646 57.0619 20.646C57.1346 20.646 57.2174 20.646 57.2901 20.6393V13.9528C57.2901 11.0748 56.5049 9.1398 55.109 7.63204C53.6694 6.08512 51.5196 5.1903 49.0287 5.1903C44.2515 5.1903 40.9407 8.68904 40.9407 13.2448C40.9407 17.7222 44.0066 20.7097 47.9818 20.7097C51.0465 20.7097 52.8876 18.8865 52.8876 16.7502C52.8876 15.9527 52.6382 15.097 52.0923 14.2839C51.6505 16.5824 50.3799 17.8463 48.333 17.8463C46.1474 17.8463 44.2247 16.1887 44.2247 13.1676C44.2247 10.1979 46.1519 8.16667 49.0377 8.16667C50.4828 8.16667 51.646 8.67115 52.523 9.53463C53.5576 10.5581 54.1582 12.1274 54.1582 14.6093ZM63.5303 2.27545C63.5303 1.25871 62.7015 0.432129 61.6803 0.432129C60.6624 0.432129 59.8336 1.25871 59.8336 2.27545C59.8336 3.29888 60.6624 4.12996 61.6803 4.12996C62.7015 4.12996 63.5303 3.29888 63.5303 2.27545ZM63.2451 20.6393V8.19353C63.2451 7.22378 62.9889 6.5672 62.5113 6.08512C62.0013 5.56836 61.2474 5.28986 60.3414 5.28986C60.2732 5.28986 60.1848 5.28987 60.1188 5.2988V17.7445C60.1188 18.7076 60.3727 19.3664 60.8515 19.8485C61.3559 20.3607 62.1165 20.646 63.0158 20.646C63.0862 20.646 63.1701 20.646 63.2451 20.6393Z" fill="#15B79E"/>
</g>
</g>
</g>
<path id="Vector_3" d="M18.0708 8.49653C18.0708 6.69236 16.6828 5.32778 14.7029 5.47989C10.5007 5.80204 9.95825 10.5815 12.6941 10.8868C15.553 11.2067 16.5764 8.18226 16.6324 8.01221H16.6348C16.6413 8.21691 16.7936 12.3789 12.5511 12.3789C10.3454 12.3789 9.21128 10.577 9.21128 9.01438C9.21128 6.69909 11.4628 4.3972 14.6394 4.27415C16.419 4.20597 17.5912 4.6265 18.5094 5.54482C20.3807 7.41604 19.8428 10.9259 18.3271 12.6585C15.9235 15.4101 12.5433 16.1091 9.39358 14.6965C6.24495 13.2849 5.11641 9.19562 7.02456 5.77517C7.72698 4.51692 10.2761 1.71277 14.6573 1.71277C20.2197 1.71277 23.0394 5.65553 22.5305 10.2873C22.1401 13.8363 19.9837 16.4067 18.9848 17.4927C14.5947 22.2643 8.14312 23.2161 4.07731 20.7341C1.83921 19.3684 0.538351 16.9167 0.8269 14.1427C1.07527 16.146 2.07403 17.8797 3.73616 19.0139C7.0593 21.28 12.6161 21.5909 16.6326 17.1739C12.5959 20.1894 7.87917 20.1436 4.65895 18.0452C1.70383 16.1203 0.890697 12.2771 2.33806 8.47527C1.61211 11.8644 2.7788 15.0063 5.34238 16.6437C9.33765 19.1951 15.1573 17.7276 18.826 13.6182C20.0754 12.2178 20.7923 10.3286 20.7689 8.60505C20.7307 5.73045 18.7275 3.15007 14.683 3.15007C10.5311 3.15007 7.68006 6.35909 7.68006 9.03004C7.68006 11.9952 9.71459 13.6864 12.3688 13.6864C14.994 13.6864 18.071 12.031 18.071 8.4954" fill="#15B79E"/>
</g>
<defs>
<clipPath id="clip0_611_12101">
<rect width="81" height="21.6526" fill="white" transform="translate(0.75 0.423706)"/>
</clipPath>
</defs>
</svg>
