<svg width="16" height="16" viewBox="0 0 16 16" fill="none" xmlns="http://www.w3.org/2000/svg">
<path id="Instagram" fill-rule="evenodd" clip-rule="evenodd" d="M14.6534 1.34137C15.0562 1.74343 15.3705 2.22505 15.5762 2.75538C15.8134 3.38457 15.9399 4.04993 15.9503 4.72212C16 5.57109 16 5.84609 16 8.01332C16 10.1805 15.9885 10.4511 15.9503 11.3045C15.9369 11.9681 15.8117 12.6228 15.578 13.2438C15.372 13.774 15.0576 14.2556 14.6548 14.6578C14.252 15.06 13.7697 15.3739 13.2386 15.5795C12.6168 15.8121 11.9601 15.9377 11.2963 15.9512C10.4478 16 10.1697 16 8.00002 16C5.83031 16 5.55932 15.9885 4.7037 15.9512C4.03854 15.9294 3.382 15.7944 2.76233 15.552C2.23107 15.3467 1.74854 15.033 1.34557 14.631C0.942602 14.229 0.628058 13.7474 0.422035 13.2171C0.188361 12.5953 0.0630832 11.9406 0.0497558 11.277C0 10.428 0 10.1522 0 7.98582C0 5.81859 0.0115504 5.54802 0.0497558 4.69462C0.0627407 4.0318 0.188632 3.37602 0.422035 2.75538C0.627481 2.22491 0.94172 1.74317 1.34459 1.34108C1.74746 0.938986 2.23007 0.625418 2.76144 0.420493C3.38229 0.186828 4.03856 0.0608178 4.70192 0.0479042C5.55043 0 5.82853 0 7.99824 0C10.1679 0 10.4389 0.0106453 11.2946 0.0479042C11.9584 0.0615136 12.6152 0.187498 13.2368 0.420493C13.768 0.625657 14.2505 0.939309 14.6534 1.34137ZM14.2177 12.7088C14.3948 12.2291 14.4883 11.7226 14.494 11.2114V11.2123H14.5038C14.542 10.3642 14.542 10.1318 14.542 7.9709V7.97074C14.542 5.80883 14.5322 5.57197 14.494 4.72833C14.4858 4.22281 14.3923 3.72229 14.2177 3.24773C14.0842 2.90271 13.8799 2.58937 13.6179 2.32782C13.356 2.06627 13.0422 1.8623 12.6966 1.72899C12.2216 1.55252 11.7196 1.45918 11.2128 1.4531C10.3536 1.4043 10.1315 1.4043 7.96625 1.4043C5.80099 1.4043 5.56376 1.41495 4.7188 1.4531C4.21238 1.46016 3.71088 1.55346 3.2359 1.72899C2.53488 1.9969 1.97957 2.5478 1.70858 3.24773C1.53146 3.72715 1.438 4.23334 1.43225 4.74429C1.38516 5.60391 1.38516 5.8248 1.38516 7.9867C1.38516 10.1477 1.39405 10.3855 1.43225 11.2282C1.44053 11.7337 1.53394 12.2343 1.70858 12.7088C1.84259 13.0545 2.04779 13.3681 2.31088 13.6296C2.57397 13.8911 2.88911 14.0945 3.2359 14.2267C3.71065 14.403 4.21229 14.4964 4.7188 14.5026C5.57886 14.5514 5.8001 14.5514 7.96625 14.5514C10.1306 14.5514 10.3687 14.5416 11.2128 14.5026C11.7196 14.496 12.2215 14.4027 12.6966 14.2267C13.0422 14.0937 13.3561 13.8899 13.618 13.6285C13.88 13.3671 14.0843 13.0538 14.2177 12.7088ZM12.2648 4.68398C12.7938 4.68398 13.2226 4.25583 13.2226 3.72767C13.2226 3.19952 12.7938 2.77136 12.2648 2.77136C11.7358 2.77136 11.307 3.19952 11.307 3.72767C11.307 4.25583 11.7358 4.68398 12.2648 4.68398ZM7.99383 3.87851C6.90422 3.87851 5.85923 4.31069 5.08875 5.07997C4.31828 5.84924 3.88543 6.89261 3.88543 7.98053C3.88543 9.06846 4.31828 10.1118 5.08875 10.8811C5.85923 11.6504 6.90422 12.0826 7.99383 12.0826C9.08345 12.0826 10.1284 11.6504 10.8989 10.8811C11.6694 10.1118 12.1022 9.06846 12.1022 7.98053C12.1022 6.89261 11.6694 5.84924 10.8989 5.07997C10.1284 4.31069 9.08345 3.87851 7.99383 3.87851ZM7.99383 10.6445C7.28596 10.6445 6.60708 10.3638 6.10654 9.86401C5.60599 9.36425 5.32479 8.68642 5.32479 7.97965C5.32479 7.27287 5.60599 6.59505 6.10654 6.09528C6.60708 5.59552 7.28596 5.31475 7.99383 5.31475C8.70171 5.31475 9.38059 5.59552 9.88113 6.09528C10.3817 6.59505 10.6629 7.27287 10.6629 7.97965C10.6629 8.68642 10.3817 9.36425 9.88113 9.86401C9.38059 10.3638 8.70171 10.6445 7.99383 10.6445Z" fill="#1548EF"/>
</svg>
