<svg width="16" height="16" viewBox="0 0 16 16" fill="none" xmlns="http://www.w3.org/2000/svg">
<path id="LinkedIn" fill-rule="evenodd" clip-rule="evenodd" d="M3.84598 1.92626C3.84598 2.99011 2.98503 3.85253 1.92299 3.85253C0.860951 3.85253 0 2.99011 0 1.92626C0 0.862417 0.860951 0 1.92299 0C2.98503 0 3.84598 0.862417 3.84598 1.92626ZM5.66175 15.9991V5.31223H8.84154V6.77365H8.88636C9.32844 5.93465 10.4095 5.04811 12.0222 5.04811C15.3813 5.04811 16 7.2605 16 10.1393V16H12.6858V10.8023C12.6858 9.56357 12.6647 7.9692 10.9623 7.9692C9.23616 7.9692 8.97425 9.3197 8.97425 10.7142V15.9991H5.66175ZM3.58144 5.31223H0.263672V15.9991H3.58144V5.31223Z" fill="#1548EF"/>
</svg>
