<svg width="16" height="14" viewBox="0 0 16 14" fill="none" xmlns="http://www.w3.org/2000/svg">
<path id="Twitter" d="M16 2.08812C15.4116 2.34626 14.7795 2.52068 14.115 2.59951C14.8007 2.19332 15.3136 1.55403 15.5582 0.800909C14.914 1.17974 14.209 1.44639 13.4738 1.58928C12.9794 1.06663 12.3245 0.720206 11.6109 0.603797C10.8973 0.487389 10.1648 0.607507 9.52717 0.945504C8.88955 1.2835 8.38247 1.82046 8.08467 2.47303C7.78686 3.12559 7.71499 3.85725 7.88021 4.5544C6.57496 4.48951 5.29807 4.15362 4.13242 3.56852C2.96677 2.98342 1.93841 2.16218 1.11407 1.15812C0.832203 1.63951 0.670131 2.19765 0.670131 2.79207C0.669817 3.32719 0.802912 3.8541 1.05761 4.32607C1.3123 4.79804 1.68073 5.20047 2.13019 5.49766C1.60893 5.48123 1.09918 5.34178 0.643354 5.09091V5.13277C0.643302 5.88329 0.905511 6.61071 1.38549 7.19161C1.86547 7.7725 2.53365 8.1711 3.27667 8.31975C2.79312 8.44932 2.28615 8.4684 1.79406 8.37556C2.0037 9.02134 2.41205 9.58605 2.96194 9.99063C3.51184 10.3952 4.17575 10.6194 4.86074 10.6318C3.69794 11.5356 2.26188 12.0259 0.783581 12.0237C0.521717 12.0238 0.260073 12.0086 0 11.9784C1.50056 12.9336 3.24731 13.4406 5.03127 13.4386C11.0702 13.4386 14.3715 8.48649 14.3715 4.19161C14.3715 4.05207 14.368 3.91114 14.3617 3.77161C15.0038 3.31182 15.5581 2.74246 15.9986 2.09021L16 2.08812Z" fill="#1548EF"/>
</svg>
